0
SECTION
2
HEADER
9
$INSUNITS
70
4
9
$ACADVER
1
AC1014
9
$HANDSEED
5
FFFF
0
ENDSEC
0
SECTION
2
TABLES
0
TABLE
2
VPORT
5
8
100
AcDbSymbolTable
0
ENDTAB
0
TABLE
2
LTYPE
5
5
100
AcDbSymbolTable
0
LTYPE
5
14
100
AcDbSymbolTableRecord
100
AcDbLinetypeTableRecord
2
BYBLOCK
70
0
0
LTYPE
5
15
100
AcDbSymbolTableRecord
100
AcDbLinetypeTableRecord
2
BYLAYER
70
0
0
ENDTAB
0
TABLE
2
LAYER
5
2
100
AcDbSymbolTable
70
2
0
LAYER
5
50
100
AcDbSymbolTableRecord
100
AcDbLayerTableRecord
2
0
70
0
6
CONTINUOUS
0
ENDTAB
0
TABLE
2
STYLE
5
3
100
AcDbSymbolTable
70
1
0
STYLE
5
11
100
AcDbSymbolTableRecord
100
AcDbTextStyleTableRecord
2
STANDARD
70
0
0
ENDTAB
0
TABLE
2
VIEW
5
6
100
AcDbSymbolTable
70
0
0
ENDTAB
0
TABLE
2
UCS
5
7
100
AcDbSymbolTable
70
0
0
ENDTAB
0
TABLE
2
APPID
5
9
100
AcDbSymbolTable
70
2
0
APPID
5
12
100
AcDbSymbolTableRecord
100
AcDbRegAppTableRecord
2
ACAD
70
0
0
ENDTAB
0
TABLE
2
DIMSTYLE
5
A
100
AcDbSymbolTable
70
1
0
ENDTAB
0
TABLE
2
BLOCK_RECORD
5
1
100
AcDbSymbolTable
70
1
0
BLOCK_RECORD
5
1F
100
AcDbSymbolTableRecord
100
AcDbBlockTableRecord
2
*MODEL_SPACE
0
BLOCK_RECORD
5
1B
100
AcDbSymbolTableRecord
100
AcDbBlockTableRecord
2
*PAPER_SPACE
0
ENDTAB
0
ENDSEC
0
SECTION
2
BLOCKS
0
BLOCK
5
20
100
AcDbEntity
100
AcDbBlockBegin
2
*MODEL_SPACE
0
ENDBLK
5
21
100
AcDbEntity
100
AcDbBlockEnd
0
BLOCK
5
1C
100
AcDbEntity
100
AcDbBlockBegin
2
*PAPER_SPACE
0
ENDBLK
5
1D
100
AcDbEntity
100
AcDbBlockEnd
0
ENDSEC
0
SECTION
2
ENTITIES
0
LWPOLYLINE
5
100
100
AcDbEntity
8
0
100
AcDbPolyline
90
16
70
1
43
0.0
10
3.219646771412954e-14
20
84.999999999999872
10
5.000000000000032
20
90
10
5.00000000000004
20
110
10
-2.483228306831383e-31
20
114.99999999999977
10
0
20
202
42
-0.41421356237309503
10
3.0000000000000071
20
205
10
92.000000000000028
20
205
42
-0.41421356237309159
10
95
20
202
10
95
20
115.00974672433739
10
90.000009518436372
20
110.0097562427737
10
90.000009518436343
20
90.009756242773705
10
95
20
85.009765761210161
10
95
20
3.0000000000000004
42
-0.41421356237309503
10
92
20
0
10
3
20
0
42
-0.41421356237309559
10
0
20
3.0000000000000071
0
LWPOLYLINE
5
101
100
AcDbEntity
8
0
100
AcDbPolyline
90
8
70
1
43
0.0
10
14.500000000000375
20
81.500000014901133
42
-0.41421356237306772
10
13.499999985099343
20
80.500000000000085
10
9.5000000000004388
20
80.500000000000085
42
-0.41421356237308721
10
8.5000000000003766
20
81.500000000000085
10
8.5000000000003553
20
89.499999985098938
42
-0.41421356237317175
10
9.5000000149017438
20
90.500000000000057
10
13.499999985098786
20
90.500000000000028
42
-0.4142135623731269
10
14.500000000000391
20
89.49999998509827
0
LWPOLYLINE
5
102
100
AcDbEntity
8
0
100
AcDbPolyline
90
8
70
1
43
0.0
10
85.499999985099464
20
105.50000000000006
42
-0.41421356237308982
10
86.500000000000483
20
104.49999998509902
10
86.500000000000469
20
96.500000014900905
42
-0.414213562373069
10
85.499999985099734
20
95.500000000000043
10
81.500000014901715
20
95.500000000000043
42
-0.41421356237310542
10
80.500000000000398
20
96.500000014901403
10
80.500000000000398
20
104.49999998509884
42
-0.41421356237318346
10
81.500000014901957
20
105.50000000000006
0
LWPOLYLINE
5
103
100
AcDbEntity
8
0
100
AcDbPolyline
90
8
70
1
43
0.0
10
13.499999985098972
20
105.50000000000013
42
-0.41421356237308982
10
14.500000000000419
20
104.49999998509878
10
14.500000000000419
20
96.500000014901133
42
-0.41421356237309698
10
13.499999985099358
20
95.500000000000114
10
9.500000014901536
20
95.500000000000085
42
-0.41421356237308105
10
8.5000000000002718
20
96.500000014901289
10
8.5000000000002611
20
104.49999998509884
42
-0.41421356237312301
10
9.5000000149015893
20
105.50000000000011
0
CIRCLE
5
104
100
AcDbEntity
8
0
100
AcDbCircle
10
47.5
20
5
30
0
40
2.0000000000000018
210
0
220
0
230
1
0
LWPOLYLINE
5
105
100
AcDbEntity
8
0
100
AcDbPolyline
90
6
70
1
43
0.0
10
24.548076211353678
20
18.999999999999993
10
19.351923788646769
20
18.999999999999993
42
0.57735026918963472
10
18.052885682970047
20
16.749999999999943
10
20.650961894323309
20
12.250000000000036
42
0.57735026918962595
10
23.249038105676661
20
12.250000000000028
10
25.847114317030137
20
16.750000000000369
42
0.57735026918961696
0
LWPOLYLINE
5
106
100
AcDbEntity
8
0
100
AcDbPolyline
90
8
70
1
43
0.0
10
17.499999999999801
20
80.000000000007887
10
17.499999999999801
20
76.000000000000398
42
0.41421356237184731
10
19.500000000002849
20
73.999999999999943
10
45.499999999997456
20
73.999999999999943
42
0.41421356237320561
10
47.500000000000078
20
76.000000000001478
10
47.500000000000078
20
80.000000000004121
42
0.41421356237317958
10
45.500000000004881
20
81.999999999999957
10
19.499999999991829
20
81.999999999999957
42
0.41421356237309537
0
CIRCLE
5
107
100
AcDbEntity
8
0
100
AcDbCircle
10
79.300000000000011
20
44.974999999999987
30
0
40
1.5499999999999934
210
0
220
0
230
1
0
CIRCLE
5
108
100
AcDbEntity
8
0
100
AcDbCircle
10
79.300000000000011
20
17.074999999999992
30
0
40
1.5499999999999934
210
0
220
0
230
1
0
CIRCLE
5
109
100
AcDbEntity
8
0
100
AcDbCircle
10
28.499999999999996
20
60.174999999999997
30
0
40
1.5500000000000025
210
0
220
0
230
1
0
LWPOLYLINE
5
110
100
AcDbEntity
8
0
100
AcDbPolyline
90
12
70
1
43
0.0
10
9.9999999999999734
20
188.5
10
34.999999999999972
20
188.50000000000006
10
34.999999999999972
20
193.94999999999999
10
36.249999999999993
20
193.94999999999999
42
0.99999999999999989
10
36.249999999999993
20
196.05000000000001
10
34.999999999999957
20
196.05000000000001
10
34.999999999999943
20
201.5
10
9.9999999999999858
20
201.5
10
9.9999999999999805
20
196.04999999999993
10
8.7499999999999964
20
196.04999999999993
42
0.99999999999999989
10
8.7499999999999964
20
193.94999999999993
10
9.9999999999999858
20
193.95000000000007
0
CIRCLE
5
111
100
AcDbEntity
8
0
100
AcDbCircle
10
17
20
53.174999999999997
30
0
40
1.9999999999999996
210
0
220
0
230
1
0
CIRCLE
5
112
100
AcDbEntity
8
0
100
AcDbCircle
10
26.899999999999999
20
11.674999999999997
30
0
40
1.549999999999998
210
0
220
0
230
1
0
CIRCLE
5
113
100
AcDbEntity
8
0
100
AcDbCircle
10
11.74999999999994
20
175.25000000000009
30
0
40
1.5499999999999958
210
0
220
0
230
1
0
CIRCLE
5
114
100
AcDbEntity
8
0
100
AcDbCircle
10
83.249999999999858
20
138.75000000000003
30
0
40
1.5499999999999934
210
0
220
0
230
1
0
CIRCLE
5
115
100
AcDbEntity
8
0
100
AcDbCircle
10
10.500000000000327
20
110.00000000000001
30
0
40
1.5500000000000069
210
0
220
0
230
1
0
CIRCLE
5
116
100
AcDbEntity
8
0
100
AcDbCircle
10
84.500000000000369
20
110.00000000000011
30
0
40
1.5500000000000114
210
0
220
0
230
1
0
CIRCLE
5
117
100
AcDbEntity
8
0
100
AcDbCircle
10
84.500000000000284
20
75.999999999999886
30
0
40
1.5500000000000114
210
0
220
0
230
1
0
CIRCLE
5
118
100
AcDbEntity
8
0
100
AcDbCircle
10
10.500000000000263
20
76
30
0
40
1.5500000000000069
210
0
220
0
230
1
0
CIRCLE
5
119
100
AcDbEntity
8
0
100
AcDbCircle
10
17
20
41.174999999999997
30
0
40
1.9999999999999973
210
0
220
0
230
1
0
CIRCLE
5
120
100
AcDbEntity
8
0
100
AcDbCircle
10
47.500000000000057
20
66.299999999999983
30
0
40
1.2999999999999989
210
0
220
0
230
1
0
CIRCLE
5
121
100
AcDbEntity
8
0
100
AcDbCircle
10
47.500000000000199
20
123.69999999999999
30
0
40
1.2999999999999989
210
0
220
0
230
1
0
CIRCLE
5
122
100
AcDbEntity
8
0
100
AcDbCircle
10
10.000000000000036
20
120
30
0
40
1.5500000000000003
210
0
220
0
230
1
0
CIRCLE
5
123
100
AcDbEntity
8
0
100
AcDbCircle
10
85.000009518436372
20
120.00975624277368
30
0
40
1.5499999999999934
210
0
220
0
230
1
0
LWPOLYLINE
5
124
100
AcDbEntity
8
0
100
AcDbPolyline
90
12
70
1
43
0.0
10
58.750000000000028
20
193.95000000000005
42
-0.99999999999999989
10
58.750000000000043
20
196.05000000000004
10
60.000000000000078
20
196.04999999999995
10
60.000000000000071
20
201.50000000000003
10
85.000000000000014
20
201.50000000000011
10
85.000000000000057
20
196.05000000000007
10
86.250000000000085
20
196.05000000000004
42
-0.99999999999999989
10
86.250000000000057
20
193.9500000000001
10
85.000000000000071
20
193.95000000000013
10
85.000000000000071
20
188.50000000000017
10
60.000000000000085
20
188.50000000000009
10
60.000000000000078
20
193.95000000000005
0
LWPOLYLINE
5
125
100
AcDbEntity
8
0
100
AcDbPolyline
90
12
70
1
43
0.0
10
2.0446551777422428
20
1.9627875275909881
10
7.5000000931322575
20
1.9627875275909878
10
7.5000000931322583
20
6.1119754798710328
10
6.5808523632586011
20
6.1119754798710328
10
6.5808523632586002
20
3.0642759986221768
10
5.0960759259760389
20
3.0642759986221773
10
5.0960759259760389
20
5.8031119592487794
10
4.1769284941256055
20
5.8031119592487794
10
4.1769284941256046
20
3.0642759986221768
10
2.9675237275660042
20
3.0642759986221773
10
2.9675237275660047
20
6.0077806003391725
10
2.0446551777422437
20
6.0077806003391725
0
LWPOLYLINE
5
126
100
AcDbEntity
8
0
100
AcDbPolyline
90
12
70
1
43
0.0
10
2.0446551777422437
20
7.0497293956577742
10
7.5000000931322583
20
7.0497293956577742
10
7.5000000931322592
20
11.198917794972656
10
6.580852363258602
20
11.198917794972655
10
6.5808523632586011
20
8.1512178666889632
10
5.0960759259760398
20
8.151217866688965
10
5.0960759259760398
20
10.890053678303955
10
4.1769284941256064
20
10.890053678303953
10
4.1769284941256055
20
8.1512178666889632
10
2.9675237275660056
20
8.151217866688965
10
2.967523727566006
20
11.094722915440796
10
2.0446551777422446
20
11.094722915440794
0
LWPOLYLINE
5
127
100
AcDbEntity
8
0
100
AcDbPolyline
90
12
70
1
43
0.0
10
2.044655177742245
20
12.136670518666502
10
7.5000000931322592
20
12.136670518666502
10
7.500000093132261
20
16.285858321934935
10
6.5808523632586038
20
16.285858321934935
10
6.580852363258602
20
13.238158393651243
10
5.0960759259760398
20
13.238158393651243
10
5.0960759259760398
20
15.976995397359129
10
4.1769284941256073
20
15.976995397359129
10
4.1769284941256064
20
13.238158393651243
10
2.967523727566006
20
13.238158393651243
10
2.9675237275660065
20
16.181663442403075
10
2.0446551777422455
20
16.181663442403075
0
LINE
5
128
100
AcDbEntity
8
0
100
AcDbLine
10
2.0446551777422459
20
17.227333951741453
30
0
11
2.0446551777422464
21
19.40798299387097
31
0
0
SPLINE
5
129
100
AcDbEntity
8
0
100
AcDbSpline
70
0
71
2
72
6
73
3
74
0
42
0.000000001
43
0.0000000001
44
0.0000000001
40
0
40
0
40
0
40
1
40
1
40
1
10
2.0446551777422464
20
19.40798299387097
30
0
10
2.0446551777422464
20
20.055480170994993
30
0
10
2.0986128784716165
20
20.373646188527342
30
0
0
SPLINE
5
130
100
AcDbEntity
8
0
100
AcDbSpline
70
0
71
2
72
6
73
3
74
0
42
0.000000001
43
0.0000000001
44
0.0000000001
40
0
40
0
40
0
40
1
40
1
40
1
10
2.0986128784716165
20
20.373646188527342
30
0
10
2.1525711752474344
20
20.691812206059691
30
0
10
2.3237485624849836
20
20.942996907979246
30
0
0
SPLINE
5
131
100
AcDbEntity
8
0
100
AcDbSpline
70
0
71
2
72
6
73
3
74
0
42
0.000000001
43
0.0000000001
44
0.0000000001
40
0
40
0
40
0
40
1
40
1
40
1
10
2.3237485624849836
20
20.942996907979246
30
0
10
2.4949259497225325
20
21.194181609898802
30
0
10
2.7796010114252607
20
21.361637283116576
30
0
0
SPLINE
5
132
100
AcDbEntity
8
0
100
AcDbSpline
70
0
71
2
72
6
73
3
74
0
42
0.000000001
43
0.0000000001
44
0.0000000001
40
0
40
0
40
0
40
1
40
1
40
1
10
2.7796010114252607
20
21.361637283116576
30
0
10
3.064276073127989
20
21.529092956334349
30
0
10
3.4177944995462934
20
21.529092956334349
30
0
0
SPLINE
5
133
100
AcDbEntity
8
0
100
AcDbSpline
70
0
71
2
72
6
73
3
74
0
42
0.000000001
43
0.0000000001
44
0.0000000001
40
0
40
0
40
0
40
1
40
1
40
1
10
3.4177944995462934
20
21.529092956334349
30
0
10
3.8010827638208906
20
21.529092956334349
30
0
10
4.1211096383631265
20
21.322564054280516
30
0
0
SPLINE
5
134
100
AcDbEntity
8
0
100
AcDbSpline
70
0
71
2
72
6
73
3
74
0
42
0.000000001
43
0.0000000001
44
0.0000000001
40
0
40
0
40
0
40
1
40
1
40
1
10
4.1211096383631265
20
21.322564054280516
30
0
10
4.4411368109285867
20
21.116035152226683
30
0
10
4.6011502481997049
20
20.762516427785155
30
0
0
SPLINE
5
135
100
AcDbEntity
8
0
100
AcDbSpline
70
0
71
2
72
6
73
3
74
0
42
0.000000001
43
0.0000000001
44
0.0000000001
40
0
40
0
40
0
40
1
40
1
40
1
10
4.6011502481997049
20
20.762516427785155
30
0
10
4.7462789155542886
20
21.261162925511595
30
0
10
5.0960759259760424
20
21.529092956334349
30
0
0
SPLINE
5
136
100
AcDbEntity
8
0
100
AcDbSpline
70
0
71
2
72
6
73
3
74
0
42
0.000000001
43
0.0000000001
44
0.0000000001
40
0
40
0
40
0
40
1
40
1
40
1
10
5.0960759259760424
20
21.529092956334349
30
0
10
5.4458729363977953
20
21.797022987157103
30
0
10
5.9184713102877184
20
21.797022987157103
30
0
0
SPLINE
5
137
100
AcDbEntity
8
0
100
AcDbSpline
70
0
71
2
72
6
73
3
74
0
42
0.000000001
43
0.0000000001
44
0.0000000001
40
0
40
0
40
0
40
1
40
1
40
1
10
5.9184713102877184
20
21.797022987157103
30
0
10
6.2905956245958849
20
21.797022987157103
30
0
10
6.6422528959810778
20
21.623985935002562
30
0
0
SPLINE
5
138
100
AcDbEntity
8
0
100
AcDbSpline
70
0
71
2
72
6
73
3
74
0
42
0.000000001
43
0.0000000001
44
0.0000000001
40
0
40
0
40
0
40
1
40
1
40
1
10
6.6422528959810778
20
21.623985935002562
30
0
10
6.9939107634127184
20
21.45094649866223
30
0
10
7.204161379486326
20
21.151386667042967
30
0
0
SPLINE
5
139
100
AcDbEntity
8
0
100
AcDbSpline
70
0
71
2
72
6
73
3
74
0
42
0.000000001
43
0.0000000001
44
0.0000000001
40
0
40
0
40
0
40
1
40
1
40
1
10
7.204161379486326
20
21.151386667042967
30
0
10
7.4144113995134866
20
20.851826835423704
30
0
10
7.4627877213060891
20
20.412719417363402
30
0
0
SPLINE
5
140
100
AcDbEntity
8
0
100
AcDbSpline
70
0
71
2
72
6
73
3
74
0
42
0.000000001
43
0.0000000001
44
0.0000000001
40
0
40
0
40
0
40
1
40
1
40
1
10
7.4627877213060891
20
20.412719417363402
30
0
10
7.4925578571856057
20
20.137347150593992
30
0
10
7.500000093132261
20
19.084235597401854
30
0
0
LINE
5
141
100
AcDbEntity
8
0
100
AcDbLine
10
7.5000000931322592
20
19.08423559740185
30
0
11
7.500000093132261
21
17.227333951741453
31
0
0
LINE
5
142
100
AcDbEntity
8
0
100
AcDbLine
10
7.500000093132261
20
17.227333951741453
30
0
11
2.0446551777422459
21
17.227333951741453
31
0
0
LINE
5
143
100
AcDbEntity
8
0
100
AcDbLine
10
2.9526389576494729
20
18.328821826726195
30
0
11
4.2141408659517801
21
18.328821826726195
31
0
0
LINE
5
144
100
AcDbEntity
8
0
100
AcDbLine
10
4.2141408659517801
20
18.328821826726195
30
0
11
4.2141408659517801
21
19.050743747502562
31
0
0
SPLINE
5
145
100
AcDbEntity
8
0
100
AcDbSpline
70
0
71
2
72
6
73
3
74
0
42
0.000000001
43
0.0000000001
44
0.0000000001
40
0
40
0
40
0
40
1
40
1
40
1
10
4.2141408659517801
20
19.050743747502562
30
0
10
4.2141408659517801
20
19.69451921060681
30
0
10
4.1955346800386941
20
19.850812125951048
30
0
0
SPLINE
5
146
100
AcDbEntity
8
0
100
AcDbSpline
70
0
71
2
72
6
73
3
74
0
42
0.000000001
43
0.0000000001
44
0.0000000001
40
0
40
0
40
0
40
1
40
1
40
1
10
4.1955346800386941
20
19.850812125951048
30
0
10
4.1620434261858499
20
20.133626628667113
30
0
10
4.0001694299280679
20
20.295500922948118
30
0
0
SPLINE
5
147
100
AcDbEntity
8
0
100
AcDbSpline
70
0
71
2
72
6
73
3
74
0
42
0.000000001
43
0.0000000001
44
0.0000000001
40
0
40
0
40
0
40
1
40
1
40
1
10
4.0001694299280679
20
20.295500922948118
30
0
10
3.8382951356470625
20
20.457375217229124
30
0
10
3.574086818844084
20
20.457375217229124
30
0
0
SPLINE
5
148
100
AcDbEntity
8
0
100
AcDbSpline
70
0
71
2
72
6
73
3
74
0
42
0.000000001
43
0.0000000001
44
0.0000000001
40
0
40
0
40
0
40
1
40
1
40
1
10
3.574086818844084
20
20.457375217229124
30
0
10
3.3210421539843122
20
20.457375217229124
30
0
10
3.1628892756998579
20
20.317827630788084
30
0
0
SPLINE
5
149
100
AcDbEntity
8
0
100
AcDbSpline
70
0
71
2
72
6
73
3
74
0
42
0.000000001
43
0.0000000001
44
0.0000000001
40
0
40
0
40
0
40
1
40
1
40
1
10
3.1628892756998579
20
20.317827630788084
30
0
10
3.0047363974154031
20
20.17828123643994
30
0
10
2.9712451435625589
20
19.902908969670531
30
0
0
SPLINE
5
150
100
AcDbEntity
8
0
100
AcDbSpline
70
0
71
2
72
6
73
3
74
0
42
0.000000001
43
0.0000000001
44
0.0000000001
40
0
40
0
40
0
40
1
40
1
40
1
10
2.9712451435625589
20
19.902908969670531
30
0
10
2.9526389576494729
20
19.739173818379637
30
0
10
2.9526389576494729
20
18.961434531956908
30
0
0
LINE
5
151
100
AcDbEntity
8
0
100
AcDbLine
10
2.9526389576494729
20
18.961434531956908
30
0
11
2.9526389576494729
21
18.328821826726195
31
0
0
LINE
5
152
100
AcDbEntity
8
0
100
AcDbLine
10
5.1221246458590066
20
18.328821826726195
30
0
11
6.5808523632586038
21
18.328821826726195
31
0
0
LINE
5
153
100
AcDbEntity
8
0
100
AcDbLine
10
6.5808523632586038
20
18.328821826726195
30
0
11
6.5808523632586038
21
19.348443914204832
31
0
0
SPLINE
5
154
100
AcDbEntity
8
0
100
AcDbSpline
70
0
71
2
72
6
73
3
74
0
42
0.000000001
43
0.0000000001
44
0.0000000001
40
0
40
0
40
0
40
1
40
1
40
1
10
6.5808523632586038
20
19.348443914204832
30
0
10
6.5808523632586038
20
19.943843055516478
30
0
10
6.5473611094057595
20
20.103856492787596
30
0
0
SPLINE
5
155
100
AcDbEntity
8
0
100
AcDbSpline
70
0
71
2
72
6
73
3
74
0
42
0.000000001
43
0.0000000001
44
0.0000000001
40
0
40
0
40
0
40
1
40
1
40
1
10
6.5473611094057595
20
20.103856492787596
30
0
10
6.5027065016329324
20
20.349458623677489
30
0
10
6.3296682573854959
20
20.503890682011839
30
0
0
SPLINE
5
156
100
AcDbEntity
8
0
100
AcDbSpline
70
0
71
2
72
6
73
3
74
0
42
0.000000001
43
0.0000000001
44
0.0000000001
40
0
40
0
40
0
40
1
40
1
40
1
10
6.3296682573854959
20
20.503890682011839
30
0
10
6.1566306091845071
20
20.658321548253294
30
0
10
5.8663732744753396
20
20.658321548253294
30
0
0
SPLINE
5
157
100
AcDbEntity
8
0
100
AcDbSpline
70
0
71
2
72
6
73
3
74
0
42
0.000000001
43
0.0000000001
44
0.0000000001
40
0
40
0
40
0
40
1
40
1
40
1
10
5.8663732744753396
20
20.658321548253294
30
0
10
5.620771143585447
20
20.658321548253294
30
0
10
5.4495943523943469
20
20.539242196828123
30
0
0
SPLINE
5
158
100
AcDbEntity
8
0
100
AcDbSpline
70
0
71
2
72
6
73
3
74
0
42
0.000000001
43
0.0000000001
44
0.0000000001
40
0
40
0
40
0
40
1
40
1
40
1
10
5.4495943523943469
20
20.539242196828123
30
0
10
5.278416965156798
20
20.420161653310057
30
0
10
5.2002708055079028
20
20.195026565343138
30
0
0
SPLINE
5
159
100
AcDbEntity
8
0
100
AcDbSpline
70
0
71
2
72
6
73
3
74
0
42
0.000000001
43
0.0000000001
44
0.0000000001
40
0
40
0
40
0
40
1
40
1
40
1
10
5.2002708055079028
20
20.195026565343138
30
0
10
5.1221246458590066
20
19.969891477376219
30
0
10
5.1221246458590066
20
19.218199420720335
30
0
0
LINE
5
160
100
AcDbEntity
8
0
100
AcDbLine
10
5.1221246458590066
20
19.218199420720335
30
0
11
5.1221246458590066
21
18.328821826726195
31
0
0
LINE
5
161
100
AcDbEntity
8
0
100
AcDbLine
10
7.5000000931322619
20
24.904260803014036
30
0
11
6.908322069793944
21
24.904260803014036
31
0
0
SPLINE
5
162
100
AcDbEntity
8
0
100
AcDbSpline
70
0
71
2
72
6
73
3
74
0
42
0.000000001
43
0.0000000001
44
0.0000000001
40
0
40
0
40
0
40
1
40
1
40
1
10
6.908322069793944
20
24.904260803014036
30
0
10
7.2246278263628527
20
24.688430000096556
30
0
10
7.4069691635668322
20
24.336772132664915
30
0
0
SPLINE
5
163
100
AcDbEntity
8
0
100
AcDbSpline
70
0
71
2
72
6
73
3
74
0
42
0.000000001
43
0.0000000001
44
0.0000000001
40
0
40
0
40
0
40
1
40
1
40
1
10
7.4069691635668322
20
24.336772132664915
30
0
10
7.589309904724364
20
23.985114265233275
30
0
10
7.589309904724364
20
23.59438436105847
30
0
0
SPLINE
5
164
100
AcDbEntity
8
0
100
AcDbSpline
70
0
71
2
72
6
73
3
74
0
42
0.000000001
43
0.0000000001
44
0.0000000001
40
0
40
0
40
0
40
1
40
1
40
1
10
7.589309904724364
20
23.59438436105847
30
0
10
7.589309904724364
20
23.196211028844115
30
0
10
7.4144113995134875
20
22.879903484135863
30
0
0
SPLINE
5
165
100
AcDbEntity
8
0
100
AcDbSpline
70
0
71
2
72
6
73
3
74
0
42
0.000000001
43
0.0000000001
44
0.0000000001
40
0
40
0
40
0
40
1
40
1
40
1
10
7.4144113995134875
20
22.879903484135863
30
0
10
7.239512894302611
20
22.563598323613402
30
0
10
6.9232071377337023
20
22.422192264348265
30
0
0
SPLINE
5
166
100
AcDbEntity
8
0
100
AcDbSpline
70
0
71
2
72
6
73
3
74
0
42
0.000000001
43
0.0000000001
44
0.0000000001
40
0
40
0
40
0
40
1
40
1
40
1
10
6.9232071377337023
20
22.422192264348265
30
0
10
6.6069013811647936
20
22.280783820897337
30
0
10
6.04871461167932
20
22.280783820897337
30
0
0
LINE
5
167
100
AcDbEntity
8
0
100
AcDbLine
10
6.04871461167932
20
22.280783820897337
30
0
11
3.5480380989611193
21
22.280783820897337
31
0
0
LINE
5
168
100
AcDbEntity
8
0
100
AcDbLine
10
3.5480380989611193
20
22.280783820897337
30
0
11
3.5480380989611189
21
23.326454330235716
31
0
0
LINE
5
169
100
AcDbEntity
8
0
100
AcDbLine
10
3.5480380989611189
20
23.326454330235716
30
0
11
5.3640056587755724
21
23.326454330235716
31
0
0
SPLINE
5
170
100
AcDbEntity
8
0
100
AcDbSpline
70
0
71
2
72
6
73
3
74
0
42
0.000000001
43
0.0000000001
44
0.0000000001
40
0
40
0
40
0
40
1
40
1
40
1
10
5.3640056587755724
20
23.326454330235716
30
0
10
6.1975640989840075
20
23.326454330235716
30
0
10
6.3854874111712023
20
23.384132552891966
30
0
0
SPLINE
5
171
100
AcDbEntity
8
0
100
AcDbSpline
70
0
71
2
72
6
73
3
74
0
42
0.000000001
43
0.0000000001
44
0.0000000001
40
0
40
0
40
0
40
1
40
1
40
1
10
6.3854874111712023
20
23.384132552891966
30
0
10
6.5734101273119494
20
23.441813159734007
30
0
10
6.6831869818270251
20
23.59438436105847
30
0
0
SPLINE
5
172
100
AcDbEntity
8
0
100
AcDbSpline
70
0
71
2
72
6
73
3
74
0
42
0.000000001
43
0.0000000001
44
0.0000000001
40
0
40
0
40
0
40
1
40
1
40
1
10
6.6831869818270251
20
23.59438436105847
30
0
10
6.7929638363421008
20
23.746955562382933
30
0
10
6.7929638363421008
20
23.981392551213499
30
0
0
SPLINE
5
173
100
AcDbEntity
8
0
100
AcDbSpline
70
0
71
2
72
6
73
3
74
0
42
0.000000001
43
0.0000000001
44
0.0000000001
40
0
40
0
40
0
40
1
40
1
40
1
10
6.7929638363421008
20
23.981392551213499
30
0
10
6.7929638363421008
20
24.249322582036253
30
0
10
6.6459746100008532
20
24.461434055119749
30
0
0
SPLINE
5
174
100
AcDbEntity
8
0
100
AcDbSpline
70
0
71
2
72
6
73
3
74
0
42
0.000000001
43
0.0000000001
44
0.0000000001
40
0
40
0
40
0
40
1
40
1
40
1
10
6.6459746100008532
20
24.461434055119749
30
0
10
6.4989853836596057
20
24.673545528203245
30
0
10
6.281292531639342
20
24.751689601689574
30
0
0
SPLINE
5
175
100
AcDbEntity
8
0
100
AcDbSpline
70
0
71
2
72
6
73
3
74
0
42
0.000000001
43
0.0000000001
44
0.0000000001
40
0
40
0
40
0
40
1
40
1
40
1
10
6.281292531639342
20
24.751689601689574
30
0
10
6.0635996796190783
20
24.829836059361693
30
0
10
5.2151555754244372
20
24.829836059361693
30
0
0
LINE
5
176
100
AcDbEntity
8
0
100
AcDbLine
10
5.2151555754244372
20
24.829836059361693
30
0
11
3.5480380989611193
21
24.829836059361693
31
0
0
LINE
5
177
100
AcDbEntity
8
0
100
AcDbLine
10
3.5480380989611193
20
24.829836059361693
30
0
11
3.5480380989611193
21
25.875506568700072
31
0
0
LINE
5
178
100
AcDbEntity
8
0
100
AcDbLine
10
3.5480380989611193
20
25.875506568700072
30
0
11
7.5000000931322619
21
25.875506568700072
31
0
0
LINE
5
179
100
AcDbEntity
8
0
100
AcDbLine
10
7.5000000931322619
20
25.875506568700072
30
0
11
7.5000000931322619
21
24.904260803014036
31
0
0
LINE
5
180
100
AcDbEntity
8
0
100
AcDbLine
10
7.7604872919619128
20
26.448579002171751
30
0
11
7.9056156612932726
21
27.643098998814818
31
0
0
SPLINE
5
181
100
AcDbEntity
8
0
100
AcDbSpline
70
0
71
2
72
6
73
3
74
0
42
0.000000001
43
0.0000000001
44
0.0000000001
40
0
40
0
40
0
40
1
40
1
40
1
10
7.9056156612932735
20
27.643098998814818
30
0
10
8.1140054203569942
20
27.672867942601439
30
0
10
8.1921518780291134
20
27.780783344060179
30
0
0
SPLINE
5
182
100
AcDbEntity
8
0
100
AcDbSpline
70
0
71
2
72
6
73
3
74
0
42
0.000000001
43
0.0000000001
44
0.0000000001
40
0
40
0
40
0
40
1
40
1
40
1
10
8.1921518780291134
20
27.780783344060179
30
0
10
8.303788993507629
20
27.929632831364867
30
0
10
8.303788993507629
20
28.249662090092894
30
0
0
SPLINE
5
183
100
AcDbEntity
8
0
100
AcDbSpline
70
0
71
2
72
6
73
3
74
0
42
0.000000001
43
0.0000000001
44
0.0000000001
40
0
40
0
40
0
40
1
40
1
40
1
10
8.303788993507629
20
28.249662090092894
30
0
10
8.303788993507629
20
28.658998180180784
30
0
10
8.1809879280626827
20
28.86366622522473
30
0
0
SPLINE
5
184
100
AcDbEntity
8
0
100
AcDbSpline
70
0
71
2
72
6
73
3
74
0
42
0.000000001
43
0.0000000001
44
0.0000000001
40
0
40
0
40
0
40
1
40
1
40
1
10
8.1809879280626827
20
28.86366622522473
30
0
10
8.0991203524172359
20
29.001352954655882
30
0
10
7.9167796112597042
20
29.072055984288451
30
0
0
SPLINE
5
185
100
AcDbEntity
8
0
100
AcDbSpline
70
0
71
2
72
6
73
3
74
0
42
0.000000001
43
0.0000000001
44
0.0000000001
40
0
40
0
40
0
40
1
40
1
40
1
10
7.9167796112597042
20
29.072055984288451
30
0
10
7.7865357138216549
20
29.120431113988158
30
0
10
7.436738703399902
20
29.120431113988158
30
0
0
LINE
5
186
100
AcDbEntity
8
0
100
AcDbLine
10
7.436738703399902
20
29.120431113988158
30
0
11
6.8599457480013424
21
29.120431113988158
31
0
0
SPLINE
5
187
100
AcDbEntity
8
0
100
AcDbSpline
70
0
71
2
72
6
73
3
74
0
42
0.000000001
43
0.0000000001
44
0.0000000001
40
0
40
0
40
0
40
1
40
1
40
1
10
6.8599457480013424
20
29.120431113988158
30
0
10
7.5000000931322628
20
28.651554752141234
30
0
10
7.5000000931322628
20
27.937076259404417
30
0
0
SPLINE
5
188
100
AcDbEntity
8
0
100
AcDbSpline
70
0
71
2
72
6
73
3
74
0
42
0.000000001
43
0.0000000001
44
0.0000000001
40
0
40
0
40
0
40
1
40
1
40
1
10
7.5000000931322628
20
27.937076259404417
30
0
10
7.5000000931322619
20
27.140729594975706
30
0
10
6.826455090194945
20
26.675574947148558
30
0
0
SPLINE
5
189
100
AcDbEntity
8
0
100
AcDbSpline
70
0
71
2
72
6
73
3
74
0
42
0.000000001
43
0.0000000001
44
0.0000000001
40
0
40
0
40
0
40
1
40
1
40
1
10
6.826455090194945
20
26.675574947148558
30
0
10
6.2943167425692126
20
26.310892272740599
30
0
10
5.501691792160277
20
26.310892272740599
30
0
0
SPLINE
5
190
100
AcDbEntity
8
0
100
AcDbSpline
70
0
71
2
72
6
73
3
74
0
42
0.000000001
43
0.0000000001
44
0.0000000001
40
0
40
0
40
0
40
1
40
1
40
1
10
5.501691792160277
20
26.310892272740599
30
0
10
4.508119318634277
20
26.310892272740599
30
0
10
3.9834238030016471
20
26.789071727544066
30
0
0
SPLINE
5
191
100
AcDbEntity
8
0
100
AcDbSpline
70
0
71
2
72
6
73
3
74
0
42
0.000000001
43
0.0000000001
44
0.0000000001
40
0
40
0
40
0
40
1
40
1
40
1
10
3.9834238030016471
20
26.789071727544066
30
0
10
3.4587282873690177
20
27.267251182347533
30
0
10
3.4587282873690177
20
27.978010345250365
30
0
0
SPLINE
5
192
100
AcDbEntity
8
0
100
AcDbSpline
70
0
71
2
72
6
73
3
74
0
42
0.000000001
43
0.0000000001
44
0.0000000001
40
0
40
0
40
0
40
1
40
1
40
1
10
3.4587282873690177
20
27.978010345250365
30
0
10
3.4587282873690182
20
28.711095023900267
30
0
10
4.1025037504732662
20
29.187414813786742
30
0
0
LINE
5
193
100
AcDbEntity
8
0
100
AcDbLine
10
4.1025037504732662
20
29.187414813786742
30
0
11
3.5480380989611202
21
29.187414813786742
31
0
0
LINE
5
194
100
AcDbEntity
8
0
100
AcDbLine
10
3.5480380989611202
20
29.187414813786742
30
0
11
3.5480380989611202
21
30.166101623326536
31
0
0
LINE
5
195
100
AcDbEntity
8
0
100
AcDbLine
10
3.5480380989611202
20
30.166101623326536
30
0
11
7.094384524971252
21
30.166101623326536
31
0
0
SPLINE
5
196
100
AcDbEntity
8
0
100
AcDbSpline
70
0
71
2
72
6
73
3
74
0
42
0.000000001
43
0.0000000001
44
0.0000000001
40
0
40
0
40
0
40
1
40
1
40
1
10
7.094384524971252
20
30.166101623326536
30
0
10
7.7939785458147579
20
30.166101623326536
30
0
10
8.1400544382631832
20
30.050742793828245
30
0
0
SPLINE
5
197
100
AcDbEntity
8
0
100
AcDbSpline
70
0
71
2
72
6
73
3
74
0
42
0.000000001
43
0.0000000001
44
0.0000000001
40
0
40
0
40
0
40
1
40
1
40
1
10
8.1400544382631832
20
30.050742793828245
30
0
10
8.4861297346651607
20
29.935383964329954
30
0
10
8.6833561398088985
20
29.726994205266234
30
0
0
SPLINE
5
198
100
AcDbEntity
8
0
100
AcDbSpline
70
0
71
2
72
6
73
3
74
0
42
0.000000001
43
0.0000000001
44
0.0000000001
40
0
40
0
40
0
40
1
40
1
40
1
10
8.6833561398088985
20
29.726994205266234
30
0
10
8.8805819489061886
20
29.518604446202513
30
0
10
8.9922190643847042
20
29.170668292790648
30
0
0
SPLINE
5
199
100
AcDbEntity
8
0
100
AcDbSpline
70
0
71
2
72
6
73
3
74
0
42
0.000000001
43
0.0000000001
44
0.0000000001
40
0
40
0
40
0
40
1
40
1
40
1
10
8.9922190643847042
20
29.170668292790648
30
0
10
9.1038567759096676
20
28.822732139378783
30
0
10
9.1038567759096676
20
28.29059379175305
30
0
0
SPLINE
5
200
100
AcDbEntity
8
0
100
AcDbSpline
70
0
71
2
72
6
73
3
74
0
42
0.000000001
43
0.0000000001
44
0.0000000001
40
0
40
0
40
0
40
1
40
1
40
1
10
9.1038567759096676
20
28.29059379175305
30
0
10
9.1038567759096676
20
27.285857368260618
30
0
10
8.7596411444246804
20
26.865358520299193
30
0
0
SPLINE
5
201
100
AcDbEntity
8
0
100
AcDbSpline
70
0
71
2
72
6
73
3
74
0
42
0.000000001
43
0.0000000001
44
0.0000000001
40
0
40
0
40
0
40
1
40
1
40
1
10
8.7596411444246804
20
26.865358520299193
30
0
10
8.4154261089861429
20
26.444857288151976
30
0
10
7.8870094753801867
20
26.444857288151976
30
0
0
SPLINE
5
202
100
AcDbEntity
8
0
100
AcDbSpline
70
0
71
2
72
6
73
3
74
0
42
0.000000001
43
0.0000000001
44
0.0000000001
40
0
40
0
40
0
40
1
40
1
40
1
10
7.8870094753801867
20
26.444857288151976
30
0
10
7.8349120356142565
20
26.444857288151976
30
0
10
7.7604872919619128
20
26.448579002171751
30
0
0
SPLINE
5
203
100
AcDbEntity
8
0
100
AcDbSpline
70
0
71
2
72
6
73
3
74
0
42
0.000000001
43
0.0000000001
44
0.0000000001
40
0
40
0
40
0
40
1
40
1
40
1
10
5.4421515204012438
20
27.382610011845824
30
0
10
6.0710419155657345
20
27.382610011845824
30
0
10
6.3631595112383419
20
27.626352477818724
30
0
0
SPLINE
5
204
100
AcDbEntity
8
0
100
AcDbSpline
70
0
71
2
72
6
73
3
74
0
42
0.000000001
43
0.0000000001
44
0.0000000001
40
0
40
0
40
0
40
1
40
1
40
1
10
6.3631595112383419
20
27.626352477818724
30
0
10
6.6552777029573971
20
27.870094943791624
30
0
10
6.6552777029573971
20
28.227334190160033
30
0
0
SPLINE
5
205
100
AcDbEntity
8
0
100
AcDbSpline
70
0
71
2
72
6
73
3
74
0
42
0.000000001
43
0.0000000001
44
0.0000000001
40
0
40
0
40
0
40
1
40
1
40
1
10
6.6552777029573971
20
28.227334190160033
30
0
10
6.6552777029573971
20
28.610620666295286
30
0
10
6.3557172752916866
20
28.874828983098265
30
0
0
SPLINE
5
206
100
AcDbEntity
8
0
100
AcDbSpline
70
0
71
2
72
6
73
3
74
0
42
0.000000001
43
0.0000000001
44
0.0000000001
40
0
40
0
40
0
40
1
40
1
40
1
10
6.3557172752916866
20
28.874828983098265
30
0
10
6.0561568476259762
20
29.139039684087034
30
0
10
5.4682005383074337
20
29.139039684087034
30
0
0
SPLINE
5
207
100
AcDbEntity
8
0
100
AcDbSpline
70
0
71
2
72
6
73
3
74
0
42
0.000000001
43
0.0000000001
44
0.0000000001
40
0
40
0
40
0
40
1
40
1
40
1
10
5.4682005383074337
20
29.139039684087034
30
0
10
4.8541952110827022
20
29.139039684087034
30
0
10
4.5564956404268795
20
28.885994125157591
30
0
0
SPLINE
5
208
100
AcDbEntity
8
0
100
AcDbSpline
70
0
71
2
72
6
73
3
74
0
42
0.000000001
43
0.0000000001
44
0.0000000001
40
0
40
0
40
0
40
1
40
1
40
1
10
4.5564956404268795
20
28.885994125157591
30
0
10
4.2587960697710567
20
28.632948566228148
30
0
10
4.2587960697710567
20
28.245940376073118
30
0
0
SPLINE
5
209
100
AcDbEntity
8
0
100
AcDbSpline
70
0
71
2
72
6
73
3
74
0
42
0.000000001
43
0.0000000001
44
0.0000000001
40
0
40
0
40
0
40
1
40
1
40
1
10
4.2587960697710567
20
28.245940376073118
30
0
10
4.2587960697710567
20
27.870094943791624
30
0
10
4.5509136654436642
20
27.626352477818724
30
0
0
SPLINE
5
210
100
AcDbEntity
8
0
100
AcDbSpline
70
0
71
2
72
6
73
3
74
0
42
0.000000001
43
0.0000000001
44
0.0000000001
40
0
40
0
40
0
40
1
40
1
40
1
10
4.5509136654436642
20
27.626352477818724
30
0
10
4.8430312611162716
20
27.382610011845824
30
0
10
5.4421515204012438
20
27.382610011845824
30
0
0
LINE
5
211
100
AcDbEntity
8
0
100
AcDbLine
10
5.4942489601671767
20
36.406629253178828
30
0
11
5.8328826166689467
21
37.474627662450068
31
0
0
SPLINE
5
212
100
AcDbEntity
8
0
100
AcDbSpline
70
0
71
2
72
6
73
3
74
0
42
0.000000001
43
0.0000000001
44
0.0000000001
40
0
40
0
40
0
40
1
40
1
40
1
10
5.8328826166689467
20
37.474627662450068
30
0
10
6.725981328636415
20
37.229025531560175
30
0
10
7.1595061756670546
20
36.657812763005488
30
0
0
SPLINE
5
213
100
AcDbEntity
8
0
100
AcDbSpline
70
0
71
2
72
6
73
3
74
0
42
0.000000001
43
0.0000000001
44
0.0000000001
40
0
40
0
40
0
40
1
40
1
40
1
10
7.1595061756670546
20
36.657812763005488
30
0
10
7.5930310226976943
20
36.086602378636591
30
0
10
7.5930310226976943
20
35.208389926701777
30
0
0
SPLINE
5
214
100
AcDbEntity
8
0
100
AcDbSpline
70
0
71
2
72
6
73
3
74
0
42
0.000000001
43
0.0000000001
44
0.0000000001
40
0
40
0
40
0
40
1
40
1
40
1
10
7.5930310226976943
20
35.208389926701777
30
0
10
7.5930310226976943
20
34.121785331517451
30
0
10
6.8506426550448012
20
33.422191310673945
30
0
0
SPLINE
5
215
100
AcDbEntity
8
0
100
AcDbSpline
70
0
71
2
72
6
73
3
74
0
42
0.000000001
43
0.0000000001
44
0.0000000001
40
0
40
0
40
0
40
1
40
1
40
1
10
6.8506426550448012
20
33.422191310673945
30
0
10
6.1082542873919063
20
32.722597289830439
30
0
10
4.8207039572298589
20
32.722597289830439
30
0
0
SPLINE
5
216
100
AcDbEntity
8
0
100
AcDbSpline
70
0
71
2
72
6
73
3
74
0
42
0.000000001
43
0.0000000001
44
0.0000000001
40
0
40
0
40
0
40
1
40
1
40
1
10
4.8207039572298589
20
32.722597289830439
30
0
10
3.458728287369019
20
32.722597289830439
30
0
10
2.7051762677729192
20
33.42591302469372
30
0
0
SPLINE
5
217
100
AcDbEntity
8
0
100
AcDbSpline
70
0
71
2
72
6
73
3
74
0
42
0.000000001
43
0.0000000001
44
0.0000000001
40
0
40
0
40
0
40
1
40
1
40
1
10
2.7051762677729192
20
33.42591302469372
30
0
10
1.9516236521303718
20
34.129228759557002
30
0
10
1.951623652130372
20
35.27537124231457
30
0
0
SPLINE
5
218
100
AcDbEntity
8
0
100
AcDbSpline
70
0
71
2
72
6
73
3
74
0
42
0.000000001
43
0.0000000001
44
0.0000000001
40
0
40
0
40
0
40
1
40
1
40
1
10
1.951623652130372
20
35.27537124231457
30
0
10
1.951623652130372
20
36.276385951787226
30
0
10
2.5433019734919138
20
36.901555228978388
30
0
0
SPLINE
5
219
100
AcDbEntity
8
0
100
AcDbSpline
70
0
71
2
72
6
73
3
74
0
42
0.000000001
43
0.0000000001
44
0.0000000001
40
0
40
0
40
0
40
1
40
1
40
1
10
2.5433019734919138
20
36.901555228978388
30
0
10
2.8930989839136667
20
37.273678947240107
30
0
10
3.548038098961122
20
37.459743190556757
30
0
0
LINE
5
220
100
AcDbEntity
8
0
100
AcDbLine
10
3.5480380989611215
20
37.459743190556757
30
0
11
3.8085252977907729
21
36.369416881352656
31
0
0
SPLINE
5
221
100
AcDbEntity
8
0
100
AcDbSpline
70
0
71
2
72
6
73
3
74
0
42
0.000000001
43
0.0000000001
44
0.0000000001
40
0
40
0
40
0
40
1
40
1
40
1
10
3.8085252977907724
20
36.369416881352656
30
0
10
3.3843032456934519
20
36.272664237767451
30
0
10
3.1387011148035593
20
35.965662170201533
30
0
0
SPLINE
5
222
100
AcDbEntity
8
0
100
AcDbSpline
70
0
71
2
72
6
73
3
74
0
42
0.000000001
43
0.0000000001
44
0.0000000001
40
0
40
0
40
0
40
1
40
1
40
1
10
3.1387011148035593
20
35.965662170201533
30
0
10
2.8930989839136667
20
35.658660102635615
30
0
10
2.8930989839136667
20
35.219552684575312
30
0
0
SPLINE
5
223
100
AcDbEntity
8
0
100
AcDbSpline
70
0
71
2
72
6
73
3
74
0
42
0.000000001
43
0.0000000001
44
0.0000000001
40
0
40
0
40
0
40
1
40
1
40
1
10
2.8930989839136667
20
35.219552684575312
30
0
10
2.8930989839136667
20
34.612989593297236
30
0
10
3.3284846879541936
20
34.23528449609875
30
0
0
SPLINE
5
224
100
AcDbEntity
8
0
100
AcDbSpline
70
0
71
2
72
6
73
3
74
0
42
0.000000001
43
0.0000000001
44
0.0000000001
40
0
40
0
40
0
40
1
40
1
40
1
10
3.3284846879541936
20
34.23528449609875
30
0
10
3.763870391994721
20
33.857577014714472
30
0
10
4.7388363815844121
20
33.857577014714472
30
0
0
SPLINE
5
225
100
AcDbEntity
8
0
100
AcDbSpline
70
0
71
2
72
6
73
3
74
0
42
0.000000001
43
0.0000000001
44
0.0000000001
40
0
40
0
40
0
40
1
40
1
40
1
10
4.7388363815844121
20
33.857577014714472
30
0
10
5.7733423449099135
20
33.857577014714472
30
0
10
6.2124491669237685
20
34.229700732976191
30
0
0
SPLINE
5
226
100
AcDbEntity
8
0
100
AcDbSpline
70
0
71
2
72
6
73
3
74
0
42
0.000000001
43
0.0000000001
44
0.0000000001
40
0
40
0
40
0
40
1
40
1
40
1
10
6.2124491669237685
20
34.229700732976191
30
0
10
6.6515559889376235
20
34.601826835423701
30
0
10
6.6515559889376235
20
35.197224784642451
30
0
0
SPLINE
5
227
100
AcDbEntity
8
0
100
AcDbSpline
70
0
71
2
72
6
73
3
74
0
42
0.000000001
43
0.0000000001
44
0.0000000001
40
0
40
0
40
0
40
1
40
1
40
1
10
6.6515559889376235
20
35.197224784642451
30
0
10
6.6515559889376235
20
35.636332202702754
30
0
10
6.3724632002413344
20
35.952637363225215
30
0
0
SPLINE
5
228
100
AcDbEntity
8
0
100
AcDbSpline
70
0
71
2
72
6
73
3
74
0
42
0.000000001
43
0.0000000001
44
0.0000000001
40
0
40
0
40
0
40
1
40
1
40
1
10
6.3724632002413344
20
35.952637363225215
30
0
10
6.0933692194521498
20
36.268942523747675
30
0
10
5.4942489601671767
20
36.406629253178828
30
0
0
LINE
5
229
100
AcDbEntity
8
0
100
AcDbLine
10
2.0446551777422504
20
39.458050895482295
30
0
11
4.0504060126841148
21
39.458050895482295
31
0
0
SPLINE
5
230
100
AcDbEntity
8
0
100
AcDbSpline
70
0
71
2
72
6
73
3
74
0
42
0.000000001
43
0.0000000001
44
0.0000000001
40
0
40
0
40
0
40
1
40
1
40
1
10
4.0504060126841139
20
39.458050895482295
30
0
10
3.4587282873690199
20
39.96413962915539
30
0
10
3.4587282873690208
20
40.667455364018672
30
0
0
SPLINE
5
231
100
AcDbEntity
8
0
100
AcDbSpline
70
0
71
2
72
6
73
3
74
0
42
0.000000001
43
0.0000000001
44
0.0000000001
40
0
40
0
40
0
40
1
40
1
40
1
10
3.4587282873690208
20
40.667455364018672
30
0
10
3.4587282873690208
20
41.028416324406855
30
0
10
3.5926930047571739
20
41.318671870976679
30
0
0
SPLINE
5
232
100
AcDbEntity
8
0
100
AcDbSpline
70
0
71
2
72
6
73
3
74
0
42
0.000000001
43
0.0000000001
44
0.0000000001
40
0
40
0
40
0
40
1
40
1
40
1
10
3.5926930047571739
20
41.318671870976679
30
0
10
3.726657722145327
20
41.608927417546504
30
0
10
3.9350474812090477
20
41.755917239934199
30
0
0
SPLINE
5
233
100
AcDbEntity
8
0
100
AcDbSpline
70
0
71
2
72
6
73
3
74
0
42
0.000000001
43
0.0000000001
44
0.0000000001
40
0
40
0
40
0
40
1
40
1
40
1
10
3.9350474812090477
20
41.755917239934199
30
0
10
4.1434372402727684
20
41.902907062321894
30
0
10
4.3964819051325401
20
41.95686595514416
30
0
0
SPLINE
5
234
100
AcDbEntity
8
0
100
AcDbSpline
70
0
71
2
72
6
73
3
74
0
42
0.000000001
43
0.0000000001
44
0.0000000001
40
0
40
0
40
0
40
1
40
1
40
1
10
4.3964819051325401
20
41.95686595514416
30
0
10
4.6495265699923118
20
42.010824847966425
30
0
10
5.1816643215715965
20
42.010824847966425
30
0
0
LINE
5
235
100
AcDbEntity
8
0
100
AcDbLine
10
5.1816643215715974
20
42.010824847966425
30
0
11
7.5000000931322655
21
42.010824847966425
31
0
0
LINE
5
236
100
AcDbEntity
8
0
100
AcDbLine
10
7.5000000931322655
20
42.010824847966425
30
0
11
7.5000000931322655
21
40.965154338628047
31
0
0
LINE
5
237
100
AcDbEntity
8
0
100
AcDbLine
10
7.5000000931322655
20
40.965154338628047
30
0
11
5.4123816825449547
21
40.965154338628047
31
0
0
SPLINE
5
238
100
AcDbEntity
8
0
100
AcDbSpline
70
0
71
2
72
6
73
3
74
0
42
0.000000001
43
0.0000000001
44
0.0000000001
40
0
40
0
40
0
40
1
40
1
40
1
10
5.4123816825449547
20
40.965154338628047
30
0
10
4.7909338213503441
20
40.965154338628047
30
0
10
4.6234778501093468
20
40.905614066869013
30
0
0
SPLINE
5
239
100
AcDbEntity
8
0
100
AcDbSpline
70
0
71
2
72
6
73
3
74
0
42
0.000000001
43
0.0000000001
44
0.0000000001
40
0
40
0
40
0
40
1
40
1
40
1
10
4.6234778501093468
20
40.905614066869013
30
0
10
4.4560218788683494
20
40.84607379510998
30
0
10
4.3574086762964805
20
40.6953646428883
30
0
0
SPLINE
5
240
100
AcDbEntity
8
0
100
AcDbSpline
70
0
71
2
72
6
73
3
74
0
42
0.000000001
43
0.0000000001
44
0.0000000001
40
0
40
0
40
0
40
1
40
1
40
1
10
4.3574086762964805
20
40.6953646428883
30
0
10
4.2587957717478355
20
40.54465310648083
30
0
10
4.2587957717478355
20
40.317657161504023
30
0
0
SPLINE
5
241
100
AcDbEntity
8
0
100
AcDbSpline
70
0
71
2
72
6
73
3
74
0
42
0.000000001
43
0.0000000001
44
0.0000000001
40
0
40
0
40
0
40
1
40
1
40
1
10
4.2587957717478355
20
40.317657161504023
30
0
10
4.2587957717478355
20
40.05717055872082
30
0
10
4.3853182531893324
20
39.852502513676875
30
0
0
SPLINE
5
242
100
AcDbEntity
8
0
100
AcDbSpline
70
0
71
2
72
6
73
3
74
0
42
0.000000001
43
0.0000000001
44
0.0000000001
40
0
40
0
40
0
40
1
40
1
40
1
10
4.3853182531893324
20
39.852502513676875
30
0
10
4.5118404366076064
20
39.647834468632929
30
0
10
4.7667456604540419
20
39.552941489964716
30
0
0
SPLINE
5
243
100
AcDbEntity
8
0
100
AcDbSpline
70
0
71
2
72
6
73
3
74
0
42
0.000000001
43
0.0000000001
44
0.0000000001
40
0
40
0
40
0
40
1
40
1
40
1
10
4.7667456604540419
20
39.552941489964716
30
0
10
5.0216508843004775
20
39.458050895482295
30
0
10
5.5202979780733656
20
39.458050895482295
30
0
0
LINE
5
244
100
AcDbEntity
8
0
100
AcDbLine
10
5.5202979780733656
20
39.458050895482295
30
0
11
7.5000000931322646
21
39.458050895482295
31
0
0
LINE
5
245
100
AcDbEntity
8
0
100
AcDbLine
10
7.5000000931322646
20
39.458050895482295
30
0
11
7.5000000931322655
21
38.412380386143916
31
0
0
LINE
5
246
100
AcDbEntity
8
0
100
AcDbLine
10
7.5000000931322655
20
38.412380386143916
30
0
11
2.0446551777422495
21
38.412380386143916
31
0
0
LINE
5
247
100
AcDbEntity
8
0
100
AcDbLine
10
2.0446551777422495
20
38.412380386143916
30
0
11
2.0446551777422504
21
39.458050895482295
31
0
0
LINE
5
248
100
AcDbEntity
8
0
100
AcDbLine
10
4.7537214495241722
20
43.439781833440058
30
0
11
4.5825440622866234
21
42.490866351872675
31
0
0
SPLINE
5
249
100
AcDbEntity
8
0
100
AcDbSpline
70
0
71
2
72
6
73
3
74
0
42
0.000000001
43
0.0000000001
44
0.0000000001
40
0
40
0
40
0
40
1
40
1
40
1
10
4.5825440622866234
20
42.490866351872675
30
0
10
4.0094722248613914
20
42.650878597050898
30
0
10
3.7341002561152066
20
43.041608501225703
30
0
0
SPLINE
5
250
100
AcDbEntity
8
0
100
AcDbSpline
70
0
71
2
72
6
73
3
74
0
42
0.000000001
43
0.0000000001
44
0.0000000001
40
0
40
0
40
0
40
1
40
1
40
1
10
3.7341002561152066
20
43.041608501225703
30
0
10
3.4587279893457974
20
43.432338405400507
30
0
10
3.4587279893457974
20
44.202635455876582
30
0
0
SPLINE
5
251
100
AcDbEntity
8
0
100
AcDbSpline
70
0
71
2
72
6
73
3
74
0
42
0.000000001
43
0.0000000001
44
0.0000000001
40
0
40
0
40
0
40
1
40
1
40
1
10
3.4587279893457974
20
44.202635455876582
30
0
10
3.4587279893457974
20
44.902231860905879
30
0
10
3.6243234016001309
20
45.244586635380976
30
0
0
SPLINE
5
252
100
AcDbEntity
8
0
100
AcDbSpline
70
0
71
2
72
6
73
3
74
0
42
0.000000001
43
0.0000000001
44
0.0000000001
40
0
40
0
40
0
40
1
40
1
40
1
10
3.6243234016001309
20
45.244586635380976
30
0
10
3.7899188138544644
20
45.586941409856074
30
0
10
4.0448240377008995
20
45.726487804204218
30
0
0
SPLINE
5
253
100
AcDbEntity
8
0
100
AcDbSpline
70
0
71
2
72
6
73
3
74
0
42
0.000000001
43
0.0000000001
44
0.0000000001
40
0
40
0
40
0
40
1
40
1
40
1
10
4.0448240377008995
20
45.726487804204218
30
0
10
4.2997295595705598
20
45.866034198552363
30
0
10
4.9807173945009797
20
45.866034198552363
30
0
0
LINE
5
254
100
AcDbEntity
8
0
100
AcDbLine
10
4.9807173945009797
20
45.866034198552363
30
0
11
6.2012858130037873
21
45.854871440678828
31
0
0
SPLINE
5
255
100
AcDbEntity
8
0
100
AcDbSpline
70
0
71
2
72
6
73
3
74
0
42
0.000000001
43
0.0000000001
44
0.0000000001
40
0
40
0
40
0
40
1
40
1
40
1
10
6.2012858130037873
20
45.854871440678828
30
0
10
6.7222602106630891
20
45.854871440678828
30
0
10
6.9697226025164216
20
45.905106235295527
30
0
0
SPLINE
5
256
100
AcDbEntity
8
0
100
AcDbSpline
70
0
71
2
72
6
73
3
74
0
42
0.000000001
43
0.0000000001
44
0.0000000001
40
0
40
0
40
0
40
1
40
1
40
1
10
6.9697226025164216
20
45.905106235295527
30
0
10
7.2171855904162019
20
45.955345798283808
30
0
10
7.5000000931322663
20
46.093027759343379
30
0
0
LINE
5
257
100
AcDbEntity
8
0
100
AcDbLine
10
7.5000000931322663
20
46.093027759343379
30
0
11
7.5000000931322663
21
45.058524776250117
31
0
0
SPLINE
5
258
100
AcDbEntity
8
0
100
AcDbSpline
70
0
71
2
72
6
73
3
74
0
42
0.000000001
43
0.0000000001
44
0.0000000001
40
0
40
0
40
0
40
1
40
1
40
1
10
7.5000000931322663
20
45.058524776250117
30
0
10
7.395805213600406
20
45.017588306218379
30
0
10
7.1911365725100129
20
44.958050418645136
30
0
0
SPLINE
5
259
100
AcDbEntity
8
0
100
AcDbSpline
70
0
71
2
72
6
73
3
74
0
42
0.000000001
43
0.0000000001
44
0.0000000001
40
0
40
0
40
0
40
1
40
1
40
1
10
7.1911365725100129
20
44.958050418645136
30
0
10
7.0981056429445832
20
44.9320008046925
30
0
10
7.0683355070650666
20
44.920838046818965
30
0
0
SPLINE
5
260
100
AcDbEntity
8
0
100
AcDbSpline
70
0
71
2
72
6
73
3
74
0
42
0.000000001
43
0.0000000001
44
0.0000000001
40
0
40
0
40
0
40
1
40
1
40
1
10
7.0683355070650666
20
44.920838046818965
30
0
10
7.3288227058947175
20
44.652908015996211
30
0
10
7.4590666033327659
20
44.347765613347285
30
0
0
SPLINE
5
261
100
AcDbEntity
8
0
100
AcDbSpline
70
0
71
2
72
6
73
3
74
0
42
0.000000001
43
0.0000000001
44
0.0000000001
40
0
40
0
40
0
40
1
40
1
40
1
10
7.4590666033327659
20
44.347765613347285
30
0
10
7.5893099047243675
20
44.042623210698359
30
0
10
7.5893099047243675
20
43.696549106389277
30
0
0
SPLINE
5
262
100
AcDbEntity
8
0
100
AcDbSpline
70
0
71
2
72
6
73
3
74
0
42
0.000000001
43
0.0000000001
44
0.0000000001
40
0
40
0
40
0
40
1
40
1
40
1
10
7.5893099047243675
20
43.696549106389277
30
0
10
7.5893099047243675
20
43.086264301091425
30
0
10
7.2581190802157005
20
42.734606433659785
30
0
0
SPLINE
5
263
100
AcDbEntity
8
0
100
AcDbSpline
70
0
71
2
72
6
73
3
74
0
42
0.000000001
43
0.0000000001
44
0.0000000001
40
0
40
0
40
0
40
1
40
1
40
1
10
7.2581190802157005
20
42.734606433659785
30
0
10
6.9269282557070335
20
42.382948566228144
30
0
10
6.4208389259874901
20
42.382948566228144
30
0
0
SPLINE
5
264
100
AcDbEntity
8
0
100
AcDbSpline
70
0
71
2
72
6
73
3
74
0
42
0.000000001
43
0.0000000001
44
0.0000000001
40
0
40
0
40
0
40
1
40
1
40
1
10
6.4208389259874901
20
42.382948566228144
30
0
10
6.0859269835054954
20
42.382948566228144
30
0
10
5.8235795237124046
20
42.542960811406367
30
0
0
SPLINE
5
265
100
AcDbEntity
8
0
100
AcDbSpline
70
0
71
2
72
6
73
3
74
0
42
0.000000001
43
0.0000000001
44
0.0000000001
40
0
40
0
40
0
40
1
40
1
40
1
10
5.8235795237124046
20
42.542960811406367
30
0
10
5.561231467872866
20
42.702977824956172
30
0
10
5.4216847755014985
20
42.991373706609004
30
0
0
SPLINE
5
266
100
AcDbEntity
8
0
100
AcDbSpline
70
0
71
2
72
6
73
3
74
0
42
0.000000001
43
0.0000000001
44
0.0000000001
40
0
40
0
40
0
40
1
40
1
40
1
10
5.4216847755014985
20
42.991373706609004
30
0
10
5.2821380831301301
20
43.279769588261836
30
0
10
5.1779432035982698
20
43.823068309575312
30
0
0
SPLINE
5
267
100
AcDbEntity
8
0
100
AcDbSpline
70
0
71
2
72
6
73
3
74
0
42
0.000000001
43
0.0000000001
44
0.0000000001
40
0
40
0
40
0
40
1
40
1
40
1
10
5.1779432035982698
20
43.823068309575312
30
0
10
5.0402570702135652
20
44.556157756596797
30
0
10
4.9211774207651695
20
44.83896987512707
30
0
0
LINE
5
268
100
AcDbEntity
8
0
100
AcDbLine
10
4.9211774207651695
20
44.83896987512707
30
0
11
4.8169825412333092
21
44.83896987512707
31
0
0
SPLINE
5
269
100
AcDbEntity
8
0
100
AcDbSpline
70
0
71
2
72
6
73
3
74
0
42
0.000000001
43
0.0000000001
44
0.0000000001
40
0
40
0
40
0
40
1
40
1
40
1
10
4.8169825412333092
20
44.83896987512707
30
0
10
4.5155615545809349
20
44.83896987512707
30
0
10
4.3871788121759971
20
44.690120387822382
30
0
0
SPLINE
5
270
100
AcDbEntity
8
0
100
AcDbSpline
70
0
71
2
72
6
73
3
74
0
42
0.000000001
43
0.0000000001
44
0.0000000001
40
0
40
0
40
0
40
1
40
1
40
1
10
4.3871788121759971
20
44.690120387822382
30
0
10
4.2587957717478355
20
44.541270900517695
30
0
10
4.2587957717478355
20
44.128210712224238
30
0
0
SPLINE
5
271
100
AcDbEntity
8
0
100
AcDbSpline
70
0
71
2
72
6
73
3
74
0
42
0.000000001
43
0.0000000001
44
0.0000000001
40
0
40
0
40
0
40
1
40
1
40
1
10
4.2587957717478355
20
44.128210712224238
30
0
10
4.2587957717478355
20
43.849117923527949
30
0
10
4.3685723282396873
20
43.692825008183711
30
0
0
SPLINE
5
272
100
AcDbEntity
8
0
100
AcDbSpline
70
0
71
2
72
6
73
3
74
0
42
0.000000001
43
0.0000000001
44
0.0000000001
40
0
40
0
40
0
40
1
40
1
40
1
10
4.3685723282396873
20
43.692825008183711
30
0
10
4.478349182754763
20
43.536536861211054
30
0
10
4.7537214495241722
20
43.439781833440058
30
0
0
SPLINE
5
273
100
AcDbEntity
8
0
100
AcDbSpline
70
0
71
2
72
6
73
3
74
0
42
0.000000001
43
0.0000000001
44
0.0000000001
40
0
40
0
40
0
40
1
40
1
40
1
10
5.6021649576723664
20
44.83896987512707
30
0
10
5.6691474653780549
20
44.638021159917109
30
0
10
5.7621783949434837
20
44.202635455876582
30
0
0
SPLINE
5
274
100
AcDbEntity
8
0
100
AcDbSpline
70
0
71
2
72
6
73
3
74
0
42
0.000000001
43
0.0000000001
44
0.0000000001
40
0
40
0
40
0
40
1
40
1
40
1
10
5.7621783949434837
20
44.202635455876582
30
0
10
5.8552099205553612
20
43.767249751836054
30
0
10
5.9445197321474632
20
43.633287120610468
30
0
0
SPLINE
5
275
100
AcDbEntity
8
0
100
AcDbSpline
70
0
71
2
72
6
73
3
74
0
42
0.000000001
43
0.0000000001
44
0.0000000001
40
0
40
0
40
0
40
1
40
1
40
1
10
5.9445197321474632
20
43.633287120610468
30
0
10
6.0896481014788231
20
43.428619075566523
30
0
10
6.3129229284823021
20
43.428619075566523
30
0
0
SPLINE
5
276
100
AcDbEntity
8
0
100
AcDbSpline
70
0
71
2
72
6
73
3
74
0
42
0.000000001
43
0.0000000001
44
0.0000000001
40
0
40
0
40
0
40
1
40
1
40
1
10
6.3129229284823021
20
43.428619075566523
30
0
10
6.5324766375124534
20
43.428619075566523
30
0
10
6.6924900747835716
20
43.592355418950312
30
0
0
SPLINE
5
277
100
AcDbEntity
8
0
100
AcDbSpline
70
0
71
2
72
6
73
3
74
0
42
0.000000001
43
0.0000000001
44
0.0000000001
40
0
40
0
40
0
40
1
40
1
40
1
10
6.6924900747835716
20
43.592355418950312
30
0
10
6.8525035120546898
20
43.756086993962519
30
0
10
6.8525035120546898
20
44.009134937077754
30
0
0
SPLINE
5
278
100
AcDbEntity
8
0
100
AcDbSpline
70
0
71
2
72
6
73
3
74
0
42
0.000000001
43
0.0000000001
44
0.0000000001
40
0
40
0
40
0
40
1
40
1
40
1
10
6.8525035120546898
20
44.009134937077754
30
0
10
6.8525035120546898
20
44.291947055608027
30
0
10
6.6664410568773835
20
44.548714328557246
30
0
0
SPLINE
5
279
100
AcDbEntity
8
0
100
AcDbSpline
70
0
71
2
72
6
73
3
74
0
42
0.000000001
43
0.0000000001
44
0.0000000001
40
0
40
0
40
0
40
1
40
1
40
1
10
6.6664410568773835
20
44.548714328557246
30
0
10
6.5250338055193513
20
44.73849551752209
30
0
10
6.320365760475406
20
44.798038173466914
30
0
0
SPLINE
5
280
100
AcDbEntity
8
0
100
AcDbSpline
70
0
71
2
72
6
73
3
74
0
42
0.000000001
43
0.0000000001
44
0.0000000001
40
0
40
0
40
0
40
1
40
1
40
1
10
6.320365760475406
20
44.798038173466914
30
0
10
6.186400745064029
20
44.83896987512707
30
0
10
5.8105547167360871
20
44.83896987512707
30
0
0
LINE
5
281
100
AcDbEntity
8
0
100
AcDbLine
10
5.810554716736088
20
44.83896987512707
30
0
11
5.6021649576723664
21
44.83896987512707
31
0
0
LINE
5
282
100
AcDbEntity
8
0
100
AcDbLine
10
6.3724632002413362
20
46.532137561589472
30
0
11
6.2124491669237702
21
47.581527400761836
31
0
0
SPLINE
5
283
100
AcDbEntity
8
0
100
AcDbSpline
70
0
71
2
72
6
73
3
74
0
42
0.000000001
43
0.0000000001
44
0.0000000001
40
0
40
0
40
0
40
1
40
1
40
1
10
6.2124491669237702
20
47.581527400761836
30
0
10
6.517591569572696
20
47.648508716374629
30
0
10
6.6757441498339265
20
47.853181529790156
30
0
0
SPLINE
5
284
100
AcDbEntity
8
0
100
AcDbSpline
70
0
71
2
72
6
73
3
74
0
42
0.000000001
43
0.0000000001
44
0.0000000001
40
0
40
0
40
0
40
1
40
1
40
1
10
6.6757441498339265
20
47.853181529790156
30
0
10
6.8338973261416047
20
48.057849574834101
30
0
10
6.8338973261416047
20
48.426249194890254
30
0
0
SPLINE
5
285
100
AcDbEntity
8
0
100
AcDbSpline
70
0
71
2
72
6
73
3
74
0
42
0.000000001
43
0.0000000001
44
0.0000000001
40
0
40
0
40
0
40
1
40
1
40
1
10
6.8338973261416047
20
48.426249194890254
30
0
10
6.8338973261416047
20
48.83186595514416
30
0
10
6.6850472427904695
20
49.036534000188105
30
0
0
SPLINE
5
286
100
AcDbEntity
8
0
100
AcDbSpline
70
0
71
2
72
6
73
3
74
0
42
0.000000001
43
0.0000000001
44
0.0000000001
40
0
40
0
40
0
40
1
40
1
40
1
10
6.6850472427904695
20
49.036534000188105
30
0
10
6.5808523632586091
20
49.174220729619257
30
0
10
6.4059538580477327
20
49.174220729619257
30
0
0
SPLINE
5
287
100
AcDbEntity
8
0
100
AcDbSpline
70
0
71
2
72
6
73
3
74
0
42
0.000000001
43
0.0000000001
44
0.0000000001
40
0
40
0
40
0
40
1
40
1
40
1
10
6.4059538580477327
20
49.174220729619257
30
0
10
6.2868745066225618
20
49.174220729619257
30
0
10
6.2087280489504426
20
49.099795985966914
30
0
0
SPLINE
5
288
100
AcDbEntity
8
0
100
AcDbSpline
70
0
71
2
72
6
73
3
74
0
42
0.000000001
43
0.0000000001
44
0.0000000001
40
0
40
0
40
0
40
1
40
1
40
1
10
6.2087280489504426
20
49.099795985966914
30
0
10
6.1343033052980989
20
49.021651912480586
30
0
10
6.071041915565738
20
48.749997783452265
30
0
0
SPLINE
5
289
100
AcDbEntity
8
0
100
AcDbSpline
70
0
71
2
72
6
73
3
74
0
42
0.000000001
43
0.0000000001
44
0.0000000001
40
0
40
0
40
0
40
1
40
1
40
1
10
6.071041915565738
20
48.749997783452265
30
0
10
5.7919485308230012
20
47.484777141362422
30
0
10
5.5612314678728669
20
47.146141696721308
30
0
0
SPLINE
5
290
100
AcDbEntity
8
0
100
AcDbSpline
70
0
71
2
72
6
73
3
74
0
42
0.000000001
43
0.0000000001
44
0.0000000001
40
0
40
0
40
0
40
1
40
1
40
1
10
5.5612314678728669
20
47.146141696721308
30
0
10
5.2412045933306306
20
46.677267719060175
30
0
10
4.6718538738787263
20
46.677267719060175
30
0
0
SPLINE
5
291
100
AcDbEntity
8
0
100
AcDbSpline
70
0
71
2
72
6
73
3
74
0
42
0.000000001
43
0.0000000001
44
0.0000000001
40
0
40
0
40
0
40
1
40
1
40
1
10
4.6718538738787263
20
46.677267719060175
30
0
10
4.1583220101893037
20
46.677267719060175
30
0
10
3.8085249997675508
20
47.0828797109425
30
0
0
SPLINE
5
292
100
AcDbEntity
8
0
100
AcDbSpline
70
0
71
2
72
6
73
3
74
0
42
0.000000001
43
0.0000000001
44
0.0000000001
40
0
40
0
40
0
40
1
40
1
40
1
10
3.8085249997675508
20
47.0828797109425
30
0
10
3.4587279893457978
20
47.488496471196406
30
0
10
3.4587279893457978
20
48.340661693364375
30
0
0
SPLINE
5
293
100
AcDbEntity
8
0
100
AcDbSpline
70
0
71
2
72
6
73
3
74
0
42
0.000000001
43
0.0000000001
44
0.0000000001
40
0
40
0
40
0
40
1
40
1
40
1
10
3.4587279893457978
20
48.340661693364375
30
0
10
3.4587279893457983
20
49.151895213872187
30
0
10
3.7229366041720007
20
49.546344447880976
30
0
0
SPLINE
5
294
100
AcDbEntity
8
0
100
AcDbSpline
70
0
71
2
72
6
73
3
74
0
42
0.000000001
43
0.0000000001
44
0.0000000001
40
0
40
0
40
0
40
1
40
1
40
1
10
3.7229366041720007
20
49.546344447880976
30
0
10
3.9871449209749792
20
49.940798450261347
30
0
10
4.5043979026377299
20
50.089647937566035
30
0
0
LINE
5
295
100
AcDbEntity
8
0
100
AcDbLine
10
4.5043979026377299
20
50.089647937566028
30
0
11
4.6867389418184855
21
49.10352008417248
31
0
0
SPLINE
5
296
100
AcDbEntity
8
0
100
AcDbSpline
70
0
71
2
72
6
73
3
74
0
42
0.000000001
43
0.0000000001
44
0.0000000001
40
0
40
0
40
0
40
1
40
1
40
1
10
4.6867389418184855
20
49.10352008417248
30
0
10
4.4560215808451273
20
49.040258098393672
30
0
10
4.333220515400181
20
48.863499332219355
30
0
0
SPLINE
5
297
100
AcDbEntity
8
0
100
AcDbSpline
70
0
71
2
72
6
73
3
74
0
42
0.000000001
43
0.0000000001
44
0.0000000001
40
0
40
0
40
0
40
1
40
1
40
1
10
4.333220515400181
20
48.863499332219355
30
0
10
4.2104194499552348
20
48.686740566045039
30
0
10
4.2104194499552339
20
48.359267879277461
30
0
0
SPLINE
5
298
100
AcDbEntity
8
0
100
AcDbSpline
70
0
71
2
72
6
73
3
74
0
42
0.000000001
43
0.0000000001
44
0.0000000001
40
0
40
0
40
0
40
1
40
1
40
1
10
4.2104194499552339
20
48.359267879277461
30
0
10
4.2104194499552339
20
47.946212459355586
30
0
10
4.3257782794535249
20
47.767589259892695
30
0
0
SPLINE
5
299
100
AcDbEntity
8
0
100
AcDbSpline
70
0
71
2
72
6
73
3
74
0
42
0.000000001
43
0.0000000001
44
0.0000000001
40
0
40
0
40
0
40
1
40
1
40
1
10
4.3257782794535249
20
47.767589259892695
30
0
10
4.4076455570757478
20
47.648508716374629
30
0
10
4.5378891564905732
20
47.648508716374629
30
0
0
SPLINE
5
300
100
AcDbEntity
8
0
100
AcDbSpline
70
0
71
2
72
6
73
3
74
0
42
0.000000001
43
0.0000000001
44
0.0000000001
40
0
40
0
40
0
40
1
40
1
40
1
10
4.5378891564905732
20
47.648508716374629
30
0
10
4.6495265699923127
20
47.648508716374629
30
0
10
4.727672729641208
20
47.752707172185175
30
0
0
SPLINE
5
301
100
AcDbEntity
8
0
100
AcDbSpline
70
0
71
2
72
6
73
3
74
0
42
0.000000001
43
0.0000000001
44
0.0000000001
40
0
40
0
40
0
40
1
40
1
40
1
10
4.727672729641208
20
47.752707172185175
30
0
10
4.8318673111498445
20
47.894113231450312
30
0
10
5.0216508843004792
20
48.729531932622187
30
0
0
SPLINE
5
302
100
AcDbEntity
8
0
100
AcDbSpline
70
0
71
2
72
6
73
3
74
0
42
0.000000001
43
0.0000000001
44
0.0000000001
40
0
40
0
40
0
40
1
40
1
40
1
10
5.0216508843004792
20
48.729531932622187
30
0
10
5.211434457451114
20
49.564950633794062
30
0
10
5.4868067242205232
20
49.896142650395625
30
0
0
SPLINE
5
303
100
AcDbEntity
8
0
100
AcDbSpline
70
0
71
2
72
6
73
3
74
0
42
0.000000001
43
0.0000000001
44
0.0000000001
40
0
40
0
40
0
40
1
40
1
40
1
10
5.4868067242205232
20
49.896142650395625
30
0
10
5.7659001089632609
20
50.223610568791621
30
0
10
6.2645466066897013
20
50.223610568791621
30
0
0
SPLINE
5
304
100
AcDbEntity
8
0
100
AcDbSpline
70
0
71
2
72
6
73
3
74
0
42
0.000000001
43
0.0000000001
44
0.0000000001
40
0
40
0
40
0
40
1
40
1
40
1
10
6.2645466066897013
20
50.223610568791621
30
0
10
6.8078483082354166
20
50.223610568791621
30
0
10
7.198579404503116
20
49.769618678838007
30
0
0
SPLINE
5
305
100
AcDbEntity
8
0
100
AcDbSpline
70
0
71
2
72
6
73
3
74
0
42
0.000000001
43
0.0000000001
44
0.0000000001
40
0
40
0
40
0
40
1
40
1
40
1
10
7.198579404503116
20
49.769618678838007
30
0
10
7.5893099047243684
20
49.315626788884394
30
0
10
7.5893099047243684
20
48.426249194890254
30
0
0
SPLINE
5
306
100
AcDbEntity
8
0
100
AcDbSpline
70
0
71
2
72
6
73
3
74
0
42
0.000000001
43
0.0000000001
44
0.0000000001
40
0
40
0
40
0
40
1
40
1
40
1
10
7.5893099047243684
20
48.426249194890254
30
0
10
7.5893099047243684
20
47.618739772588007
30
0
10
7.261840198189029
20
47.1480013616383
30
0
0
SPLINE
5
307
100
AcDbEntity
8
0
100
AcDbSpline
70
0
71
2
72
6
73
3
74
0
42
0.000000001
43
0.0000000001
44
0.0000000001
40
0
40
0
40
0
40
1
40
1
40
1
10
7.261840198189029
20
47.1480013616383
30
0
10
6.9343710877001374
20
46.677267719060175
30
0
10
6.3724632002413362
20
46.532137561589472
30
0
0
LINE
5
308
100
AcDbEntity
8
0
100
AcDbLine
10
6.3724632002413371
20
50.346410442143672
30
0
11
6.2124491669237711
21
51.395800281316035
31
0
0
SPLINE
5
309
100
AcDbEntity
8
0
100
AcDbSpline
70
0
71
2
72
6
73
3
74
0
42
0.000000001
43
0.0000000001
44
0.0000000001
40
0
40
0
40
0
40
1
40
1
40
1
10
6.2124491669237711
20
51.395800281316035
30
0
10
6.5175915695726969
20
51.462781596928828
30
0
10
6.6757441498339274
20
51.667454410344355
30
0
0
SPLINE
5
310
100
AcDbEntity
8
0
100
AcDbSpline
70
0
71
2
72
6
73
3
74
0
42
0.000000001
43
0.0000000001
44
0.0000000001
40
0
40
0
40
0
40
1
40
1
40
1
10
6.6757441498339274
20
51.667454410344355
30
0
10
6.8338973261416056
20
51.8721224553883
30
0
10
6.8338973261416056
20
52.240522075444453
30
0
0
SPLINE
5
311
100
AcDbEntity
8
0
100
AcDbSpline
70
0
71
2
72
6
73
3
74
0
42
0.000000001
43
0.0000000001
44
0.0000000001
40
0
40
0
40
0
40
1
40
1
40
1
10
6.8338973261416056
20
52.240522075444453
30
0
10
6.8338973261416056
20
52.646138835698359
30
0
10
6.6850472427904704
20
52.850806880742304
30
0
0
SPLINE
5
312
100
AcDbEntity
8
0
100
AcDbSpline
70
0
71
2
72
6
73
3
74
0
42
0.000000001
43
0.0000000001
44
0.0000000001
40
0
40
0
40
0
40
1
40
1
40
1
10
6.6850472427904704
20
52.850806880742304
30
0
10
6.58085236325861
20
52.988493610173457
30
0
10
6.4059538580477335
20
52.988493610173457
30
0
0
SPLINE
5
313
100
AcDbEntity
8
0
100
AcDbSpline
70
0
71
2
72
6
73
3
74
0
42
0.000000001
43
0.0000000001
44
0.0000000001
40
0
40
0
40
0
40
1
40
1
40
1
10
6.4059538580477335
20
52.988493610173457
30
0
10
6.2868745066225626
20
52.988493610173457
30
0
10
6.2087280489504435
20
52.914068866521113
30
0
0
SPLINE
5
314
100
AcDbEntity
8
0
100
AcDbSpline
70
0
71
2
72
6
73
3
74
0
42
0.000000001
43
0.0000000001
44
0.0000000001
40
0
40
0
40
0
40
1
40
1
40
1
10
6.2087280489504435
20
52.914068866521113
30
0
10
6.1343033052980998
20
52.835924793034785
30
0
10
6.0710419155657389
20
52.564270664006465
30
0
0
SPLINE
5
315
100
AcDbEntity
8
0
100
AcDbSpline
70
0
71
2
72
6
73
3
74
0
42
0.000000001
43
0.0000000001
44
0.0000000001
40
0
40
0
40
0
40
1
40
1
40
1
10
6.0710419155657389
20
52.564270664006465
30
0
10
5.7919485308230021
20
51.299050021916621
30
0
10
5.5612314678728669
20
50.960414577275507
30
0
0
SPLINE
5
316
100
AcDbEntity
8
0
100
AcDbSpline
70
0
71
2
72
6
73
3
74
0
42
0.000000001
43
0.0000000001
44
0.0000000001
40
0
40
0
40
0
40
1
40
1
40
1
10
5.5612314678728669
20
50.960414577275507
30
0
10
5.2412045933306306
20
50.491540599614375
30
0
10
4.6718538738787272
20
50.491540599614375
30
0
0
SPLINE
5
317
100
AcDbEntity
8
0
100
AcDbSpline
70
0
71
2
72
6
73
3
74
0
42
0.000000001
43
0.0000000001
44
0.0000000001
40
0
40
0
40
0
40
1
40
1
40
1
10
4.6718538738787272
20
50.491540599614375
30
0
10
4.1583220101893046
20
50.491540599614375
30
0
10
3.8085249997675512
20
50.897152591496699
30
0
0
SPLINE
5
318
100
AcDbEntity
8
0
100
AcDbSpline
70
0
71
2
72
6
73
3
74
0
42
0.000000001
43
0.0000000001
44
0.0000000001
40
0
40
0
40
0
40
1
40
1
40
1
10
3.8085249997675512
20
50.897152591496699
30
0
10
3.4587279893457983
20
51.302769351750605
30
0
10
3.4587279893457987
20
52.154934573918574
30
0
0
SPLINE
5
319
100
AcDbEntity
8
0
100
AcDbSpline
70
0
71
2
72
6
73
3
74
0
42
0.000000001
43
0.0000000001
44
0.0000000001
40
0
40
0
40
0
40
1
40
1
40
1
10
3.4587279893457987
20
52.154934573918574
30
0
10
3.4587279893457987
20
52.966168094426386
30
0
10
3.7229366041720011
20
53.360617328435175
30
0
0
SPLINE
5
320
100
AcDbEntity
8
0
100
AcDbSpline
70
0
71
2
72
6
73
3
74
0
42
0.000000001
43
0.0000000001
44
0.0000000001
40
0
40
0
40
0
40
1
40
1
40
1
10
3.7229366041720011
20
53.360617328435175
30
0
10
3.9871449209749796
20
53.755071330815547
30
0
10
4.5043979026377299
20
53.903920818120234
30
0
0
LINE
5
321
100
AcDbEntity
8
0
100
AcDbLine
10
4.5043979026377299
20
53.903920818120227
30
0
11
4.6867389418184855
21
52.917788196355097
31
0
0
SPLINE
5
322
100
AcDbEntity
8
0
100
AcDbSpline
70
0
71
2
72
6
73
3
74
0
42
0.000000001
43
0.0000000001
44
0.0000000001
40
0
40
0
40
0
40
1
40
1
40
1
10
4.6867389418184855
20
52.917788196355097
30
0
10
4.4560215808451273
20
52.854530978947871
30
0
10
4.333220515400181
20
52.677772212773554
30
0
0
SPLINE
5
323
100
AcDbEntity
8
0
100
AcDbSpline
70
0
71
2
72
6
73
3
74
0
42
0.000000001
43
0.0000000001
44
0.0000000001
40
0
40
0
40
0
40
1
40
1
40
1
10
4.333220515400181
20
52.677772212773554
30
0
10
4.2104194499552348
20
52.501013446599238
30
0
10
4.2104194499552348
20
52.17354075983166
30
0
0
SPLINE
5
324
100
AcDbEntity
8
0
100
AcDbSpline
70
0
71
2
72
6
73
3
74
0
42
0.000000001
43
0.0000000001
44
0.0000000001
40
0
40
0
40
0
40
1
40
1
40
1
10
4.2104194499552348
20
52.17354075983166
30
0
10
4.2104194499552348
20
51.760485339909785
30
0
10
4.3257782794535258
20
51.581862140446894
30
0
0
SPLINE
5
325
100
AcDbEntity
8
0
100
AcDbSpline
70
0
71
2
72
6
73
3
74
0
42
0.000000001
43
0.0000000001
44
0.0000000001
40
0
40
0
40
0
40
1
40
1
40
1
10
4.3257782794535258
20
51.581862140446894
30
0
10
4.4076455570757487
20
51.462781596928828
30
0
10
4.5378891564905741
20
51.462781596928828
30
0
0
SPLINE
5
326
100
AcDbEntity
8
0
100
AcDbSpline
70
0
71
2
72
6
73
3
74
0
42
0.000000001
43
0.0000000001
44
0.0000000001
40
0
40
0
40
0
40
1
40
1
40
1
10
4.5378891564905741
20
51.462781596928828
30
0
10
4.6495265699923136
20
51.462781596928828
30
0
10
4.7276727296412089
20
51.566980052739375
30
0
0
SPLINE
5
327
100
AcDbEntity
8
0
100
AcDbSpline
70
0
71
2
72
6
73
3
74
0
42
0.000000001
43
0.0000000001
44
0.0000000001
40
0
40
0
40
0
40
1
40
1
40
1
10
4.7276727296412089
20
51.566980052739375
30
0
10
4.8318673111498454
20
51.708386112004511
30
0
10
5.0216508843004801
20
52.543804813176386
30
0
0
SPLINE
5
328
100
AcDbEntity
8
0
100
AcDbSpline
70
0
71
2
72
6
73
3
74
0
42
0.000000001
43
0.0000000001
44
0.0000000001
40
0
40
0
40
0
40
1
40
1
40
1
10
5.0216508843004801
20
52.543804813176386
30
0
10
5.2114344574511149
20
53.379223514348261
30
0
10
5.4868067242205241
20
53.710415530949824
30
0
0
SPLINE
5
329
100
AcDbEntity
8
0
100
AcDbSpline
70
0
71
2
72
6
73
3
74
0
42
0.000000001
43
0.0000000001
44
0.0000000001
40
0
40
0
40
0
40
1
40
1
40
1
10
5.4868067242205241
20
53.710415530949824
30
0
10
5.7659001089632609
20
54.03788344934582
30
0
10
6.2645466066897013
20
54.03788344934582
30
0
0
SPLINE
5
330
100
AcDbEntity
8
0
100
AcDbSpline
70
0
71
2
72
6
73
3
74
0
42
0.000000001
43
0.0000000001
44
0.0000000001
40
0
40
0
40
0
40
1
40
1
40
1
10
6.2645466066897013
20
54.03788344934582
30
0
10
6.8078483082354166
20
54.03788344934582
30
0
10
7.1985794045031168
20
53.583891559392207
30
0
0
SPLINE
5
331
100
AcDbEntity
8
0
100
AcDbSpline
70
0
71
2
72
6
73
3
74
0
42
0.000000001
43
0.0000000001
44
0.0000000001
40
0
40
0
40
0
40
1
40
1
40
1
10
7.1985794045031168
20
53.583891559392207
30
0
10
7.5893099047243693
20
53.129899669438593
30
0
10
7.5893099047243693
20
52.240522075444453
30
0
0
SPLINE
5
332
100
AcDbEntity
8
0
100
AcDbSpline
70
0
71
2
72
6
73
3
74
0
42
0.000000001
43
0.0000000001
44
0.0000000001
40
0
40
0
40
0
40
1
40
1
40
1
10
7.5893099047243693
20
52.240522075444453
30
0
10
7.5893099047243693
20
51.433012653142207
30
0
10
7.2618401981890299
20
50.9622742421925
30
0
0
SPLINE
5
333
100
AcDbEntity
8
0
100
AcDbSpline
70
0
71
2
72
6
73
3
74
0
42
0.000000001
43
0.0000000001
44
0.0000000001
40
0
40
0
40
0
40
1
40
1
40
1
10
7.2618401981890299
20
50.9622742421925
30
0
10
6.9343710877001383
20
50.491540599614375
30
0
10
6.3724632002413371
20
50.346410442143672
30
0
0
LWPOLYLINE
5
334
100
AcDbEntity
8
0
100
AcDbPolyline
90
4
70
1
43
0.0
10
2.0446551777422526
20
54.529092479497187
10
3.0121789313852885
20
54.529092479497187
10
3.0121789313852894
20
55.574762988835566
10
2.0446551777422535
20
55.574762988835566
0
LWPOLYLINE
5
335
100
AcDbEntity
8
0
100
AcDbPolyline
90
4
70
1
43
0.0
10
3.5480380989611247
20
54.529092479497187
10
7.5000000931322672
20
54.529092479497187
10
7.5000000931322681
20
55.574762988835566
10
3.5480380989611255
20
55.574762988835566
0
LINE
5
336
100
AcDbEntity
8
0
100
AcDbLine
10
6.3724632002413379
20
55.85757510736584
30
0
11
6.212449166923772
21
56.906964946538203
31
0
0
SPLINE
5
337
100
AcDbEntity
8
0
100
AcDbSpline
70
0
71
2
72
6
73
3
74
0
42
0.000000001
43
0.0000000001
44
0.0000000001
40
0
40
0
40
0
40
1
40
1
40
1
10
6.212449166923772
20
56.906964946538203
30
0
10
6.5175915695726978
20
56.973946262150996
30
0
10
6.6757441498339283
20
57.178619075566523
30
0
0
SPLINE
5
338
100
AcDbEntity
8
0
100
AcDbSpline
70
0
71
2
72
6
73
3
74
0
42
0.000000001
43
0.0000000001
44
0.0000000001
40
0
40
0
40
0
40
1
40
1
40
1
10
6.6757441498339283
20
57.178619075566523
30
0
10
6.8338973261416065
20
57.383287120610468
30
0
10
6.8338973261416065
20
57.751686740666621
30
0
0
SPLINE
5
339
100
AcDbEntity
8
0
100
AcDbSpline
70
0
71
2
72
6
73
3
74
0
42
0.000000001
43
0.0000000001
44
0.0000000001
40
0
40
0
40
0
40
1
40
1
40
1
10
6.8338973261416065
20
57.751686740666621
30
0
10
6.8338973261416065
20
58.157303500920527
30
0
10
6.6850472427904712
20
58.361971545964472
30
0
0
SPLINE
5
340
100
AcDbEntity
8
0
100
AcDbSpline
70
0
71
2
72
6
73
3
74
0
42
0.000000001
43
0.0000000001
44
0.0000000001
40
0
40
0
40
0
40
1
40
1
40
1
10
6.6850472427904712
20
58.361971545964472
30
0
10
6.5808523632586109
20
58.499658275395625
30
0
10
6.4059538580477344
20
58.499658275395625
30
0
0
SPLINE
5
341
100
AcDbEntity
8
0
100
AcDbSpline
70
0
71
2
72
6
73
3
74
0
42
0.000000001
43
0.0000000001
44
0.0000000001
40
0
40
0
40
0
40
1
40
1
40
1
10
6.4059538580477344
20
58.499658275395625
30
0
10
6.2868745066225635
20
58.499658275395625
30
0
10
6.2087280489504444
20
58.425233531743281
30
0
0
SPLINE
5
342
100
AcDbEntity
8
0
100
AcDbSpline
70
0
71
2
72
6
73
3
74
0
42
0.000000001
43
0.0000000001
44
0.0000000001
40
0
40
0
40
0
40
1
40
1
40
1
10
6.2087280489504444
20
58.425233531743281
30
0
10
6.1343033052981006
20
58.347089458256953
30
0
10
6.0710419155657398
20
58.075435329228632
30
0
0
SPLINE
5
343
100
AcDbEntity
8
0
100
AcDbSpline
70
0
71
2
72
6
73
3
74
0
42
0.000000001
43
0.0000000001
44
0.0000000001
40
0
40
0
40
0
40
1
40
1
40
1
10
6.0710419155657398
20
58.075435329228632
30
0
10
5.791948530823003
20
56.810214687138789
30
0
10
5.5612314678728687
20
56.471579242497675
30
0
0
SPLINE
5
344
100
AcDbEntity
8
0
100
AcDbSpline
70
0
71
2
72
6
73
3
74
0
42
0.000000001
43
0.0000000001
44
0.0000000001
40
0
40
0
40
0
40
1
40
1
40
1
10
5.5612314678728687
20
56.471579242497675
30
0
10
5.2412045933306324
20
56.002705264836543
30
0
10
4.6718538738787281
20
56.002705264836543
30
0
0
SPLINE
5
345
100
AcDbEntity
8
0
100
AcDbSpline
70
0
71
2
72
6
73
3
74
0
42
0.000000001
43
0.0000000001
44
0.0000000001
40
0
40
0
40
0
40
1
40
1
40
1
10
4.6718538738787281
20
56.002705264836543
30
0
10
4.1583220101893055
20
56.002705264836543
30
0
10
3.8085249997675525
20
56.408317256718867
30
0
0
SPLINE
5
346
100
AcDbEntity
8
0
100
AcDbSpline
70
0
71
2
72
6
73
3
74
0
42
0.000000001
43
0.0000000001
44
0.0000000001
40
0
40
0
40
0
40
1
40
1
40
1
10
3.8085249997675525
20
56.408317256718867
30
0
10
3.4587279893457996
20
56.813934016972773
30
0
10
3.4587279893458001
20
57.666099239140742
30
0
0
SPLINE
5
347
100
AcDbEntity
8
0
100
AcDbSpline
70
0
71
2
72
6
73
3
74
0
42
0.000000001
43
0.0000000001
44
0.0000000001
40
0
40
0
40
0
40
1
40
1
40
1
10
3.4587279893458001
20
57.666099239140742
30
0
10
3.4587279893458001
20
58.477332759648554
30
0
10
3.7229366041720025
20
58.871781993657343
30
0
0
SPLINE
5
348
100
AcDbEntity
8
0
100
AcDbSpline
70
0
71
2
72
6
73
3
74
0
42
0.000000001
43
0.0000000001
44
0.0000000001
40
0
40
0
40
0
40
1
40
1
40
1
10
3.7229366041720025
20
58.871781993657343
30
0
10
3.987144920974981
20
59.266235996037715
30
0
10
4.5043979026377308
20
59.415085483342402
30
0
0
LINE
5
349
100
AcDbEntity
8
0
100
AcDbLine
10
4.5043979026377308
20
59.415085483342395
30
0
11
4.6867389418184864
21
58.428957629948847
31
0
0
SPLINE
5
350
100
AcDbEntity
8
0
100
AcDbSpline
70
0
71
2
72
6
73
3
74
0
42
0.000000001
43
0.0000000001
44
0.0000000001
40
0
40
0
40
0
40
1
40
1
40
1
10
4.6867389418184864
20
58.428957629948847
30
0
10
4.4560215808451282
20
58.365695644170039
30
0
10
4.3332205154001819
20
58.188936877995722
30
0
0
SPLINE
5
351
100
AcDbEntity
8
0
100
AcDbSpline
70
0
71
2
72
6
73
3
74
0
42
0.000000001
43
0.0000000001
44
0.0000000001
40
0
40
0
40
0
40
1
40
1
40
1
10
4.3332205154001819
20
58.188936877995722
30
0
10
4.2104194499552356
20
58.012178111821406
30
0
10
4.2104194499552356
20
57.684705425053828
30
0
0
SPLINE
5
352
100
AcDbEntity
8
0
100
AcDbSpline
70
0
71
2
72
6
73
3
74
0
42
0.000000001
43
0.0000000001
44
0.0000000001
40
0
40
0
40
0
40
1
40
1
40
1
10
4.2104194499552356
20
57.684705425053828
30
0
10
4.2104194499552356
20
57.271650005131953
30
0
10
4.3257782794535267
20
57.093026805669062
30
0
0
SPLINE
5
353
100
AcDbEntity
8
0
100
AcDbSpline
70
0
71
2
72
6
73
3
74
0
42
0.000000001
43
0.0000000001
44
0.0000000001
40
0
40
0
40
0
40
1
40
1
40
1
10
4.3257782794535267
20
57.093026805669062
30
0
10
4.4076455570757496
20
56.973946262150996
30
0
10
4.537889156490575
20
56.973946262150996
30
0
0
SPLINE
5
354
100
AcDbEntity
8
0
100
AcDbSpline
70
0
71
2
72
6
73
3
74
0
42
0.000000001
43
0.0000000001
44
0.0000000001
40
0
40
0
40
0
40
1
40
1
40
1
10
4.537889156490575
20
56.973946262150996
30
0
10
4.6495265699923145
20
56.973946262150996
30
0
10
4.7276727296412098
20
57.078144717961543
30
0
0
SPLINE
5
355
100
AcDbEntity
8
0
100
AcDbSpline
70
0
71
2
72
6
73
3
74
0
42
0.000000001
43
0.0000000001
44
0.0000000001
40
0
40
0
40
0
40
1
40
1
40
1
10
4.7276727296412098
20
57.078144717961543
30
0
10
4.8318673111498462
20
57.219550777226679
30
0
10
5.021650884300481
20
58.054969478398554
30
0
0
SPLINE
5
356
100
AcDbEntity
8
0
100
AcDbSpline
70
0
71
2
72
6
73
3
74
0
42
0.000000001
43
0.0000000001
44
0.0000000001
40
0
40
0
40
0
40
1
40
1
40
1
10
5.021650884300481
20
58.054969478398554
30
0
10
5.2114344574511158
20
58.890388179570429
30
0
10
5.486806724220525
20
59.221580196171992
30
0
0
SPLINE
5
357
100
AcDbEntity
8
0
100
AcDbSpline
70
0
71
2
72
6
73
3
74
0
42
0.000000001
43
0.0000000001
44
0.0000000001
40
0
40
0
40
0
40
1
40
1
40
1
10
5.486806724220525
20
59.221580196171992
30
0
10
5.7659001089632618
20
59.549048114567988
30
0
10
6.2645466066897022
20
59.549048114567988
30
0
0
SPLINE
5
358
100
AcDbEntity
8
0
100
AcDbSpline
70
0
71
2
72
6
73
3
74
0
42
0.000000001
43
0.0000000001
44
0.0000000001
40
0
40
0
40
0
40
1
40
1
40
1
10
6.2645466066897022
20
59.549048114567988
30
0
10
6.8078483082354175
20
59.549048114567988
30
0
10
7.1985794045031177
20
59.095056224614375
30
0
0
SPLINE
5
359
100
AcDbEntity
8
0
100
AcDbSpline
70
0
71
2
72
6
73
3
74
0
42
0.000000001
43
0.0000000001
44
0.0000000001
40
0
40
0
40
0
40
1
40
1
40
1
10
7.1985794045031177
20
59.095056224614375
30
0
10
7.5893099047243702
20
58.641064334660761
30
0
10
7.5893099047243702
20
57.751686740666621
30
0
0
SPLINE
5
360
100
AcDbEntity
8
0
100
AcDbSpline
70
0
71
2
72
6
73
3
74
0
42
0.000000001
43
0.0000000001
44
0.0000000001
40
0
40
0
40
0
40
1
40
1
40
1
10
7.5893099047243702
20
57.751686740666621
30
0
10
7.5893099047243702
20
56.944177318364375
30
0
10
7.2618401981890308
20
56.473438907414668
30
0
0
SPLINE
5
361
100
AcDbEntity
8
0
100
AcDbSpline
70
0
71
2
72
6
73
3
74
0
42
0.000000001
43
0.0000000001
44
0.0000000001
40
0
40
0
40
0
40
1
40
1
40
1
10
7.2618401981890308
20
56.473438907414668
30
0
10
6.9343710877001392
20
56.002705264836543
30
0
10
6.3724632002413379
20
55.85757510736584
30
0
0
LWPOLYLINE
5
362
100
AcDbEntity
8
0
100
AcDbPolyline
90
7
70
1
43
0.0
10
2.0446551777422552
20
61.610624957829707
10
7.5000000931322699
20
63.560555148869746
10
7.5000000931322708
20
64.736468959599719
10
2.0446551777422557
20
66.690123248845325
10
2.0446551777422552
20
65.521652866154895
10
6.0822058655321722
20
64.185726810246692
10
2.0446551777422548
20
62.805144954472773
0
LINE
5
363
100
AcDbEntity
8
0
100
AcDbLine
10
6.0524357296526556
20
66.9878222234547
30
0
11
5.9296346642077093
21
67.999999690800891
31
0
0
SPLINE
5
364
100
AcDbEntity
8
0
100
AcDbSpline
70
0
71
2
72
6
73
3
74
0
42
0.000000001
43
0.0000000001
44
0.0000000001
40
0
40
0
40
0
40
1
40
1
40
1
10
5.9296346642077102
20
67.999999690800891
30
0
10
6.316644046455635
20
68.048374820500598
30
0
10
6.5213126875460281
20
68.260486293584094
30
0
0
SPLINE
5
365
100
AcDbEntity
8
0
100
AcDbSpline
70
0
71
2
72
6
73
3
74
0
42
0.000000001
43
0.0000000001
44
0.0000000001
40
0
40
0
40
0
40
1
40
1
40
1
10
6.5213126875460281
20
68.260486293584094
30
0
10
6.7259813286364212
20
68.47259776666759
30
0
10
6.7259813286364212
20
68.774020839482532
30
0
0
SPLINE
5
366
100
AcDbEntity
8
0
100
AcDbSpline
70
0
71
2
72
6
73
3
74
0
42
0.000000001
43
0.0000000001
44
0.0000000001
40
0
40
0
40
0
40
1
40
1
40
1
10
6.7259813286364212
20
68.774020839482532
30
0
10
6.7259813286364212
20
69.097769428044543
30
0
10
6.4803791977465286
20
69.319183994084582
30
0
0
SPLINE
5
367
100
AcDbEntity
8
0
100
AcDbSpline
70
0
71
2
72
6
73
3
74
0
42
0.000000001
43
0.0000000001
44
0.0000000001
40
0
40
0
40
0
40
1
40
1
40
1
10
6.4803791977465286
20
69.319183994084582
30
0
10
6.2347764708101883
20
69.540598560124621
30
0
10
5.8179975487291946
20
69.540598560124621
30
0
0
SPLINE
5
368
100
AcDbEntity
8
0
100
AcDbSpline
70
0
71
2
72
6
73
3
74
0
42
0.000000001
43
0.0000000001
44
0.0000000001
40
0
40
0
40
0
40
1
40
1
40
1
10
5.8179975487291946
20
69.540598560124621
30
0
10
5.4235453344881668
20
69.540598560124621
30
0
10
5.1928282715380325
20
69.328487087041125
30
0
0
SPLINE
5
369
100
AcDbEntity
8
0
100
AcDbSpline
70
0
71
2
72
6
73
3
74
0
42
0.000000001
43
0.0000000001
44
0.0000000001
40
0
40
0
40
0
40
1
40
1
40
1
10
5.1928282715380325
20
69.328487087041125
30
0
10
4.9621112085878982
20
69.116375613957629
30
0
10
4.9621112085878982
20
68.811233211308704
30
0
0
SPLINE
5
370
100
AcDbEntity
8
0
100
AcDbSpline
70
0
71
2
72
6
73
3
74
0
42
0.000000001
43
0.0000000001
44
0.0000000001
40
0
40
0
40
0
40
1
40
1
40
1
10
4.9621112085878982
20
68.811233211308704
30
0
10
4.9621112085878973
20
68.610284496098743
30
0
10
5.0402570702135696
20
68.331191707402454
30
0
0
LINE
5
371
100
AcDbEntity
8
0
100
AcDbLine
10
5.0402570702135696
20
68.331191707402454
30
0
11
4.1880921460688247
21
68.446548152714954
31
0
0
SPLINE
5
372
100
AcDbEntity
8
0
100
AcDbSpline
70
0
71
2
72
6
73
3
74
0
42
0.000000001
43
0.0000000001
44
0.0000000001
40
0
40
0
40
0
40
1
40
1
40
1
10
4.1880921460688239
20
68.446548152714954
30
0
10
4.1992560960352554
20
68.870771098881946
30
0
10
4.0038905479014053
20
69.094045329838977
30
0
0
SPLINE
5
373
100
AcDbEntity
8
0
100
AcDbSpline
70
0
71
2
72
6
73
3
74
0
42
0.000000001
43
0.0000000001
44
0.0000000001
40
0
40
0
40
0
40
1
40
1
40
1
10
4.0038905479014053
20
69.094045329838977
30
0
10
3.8085252977907791
20
69.317319560796008
30
0
10
3.4847770072519912
20
69.317319560796008
30
0
0
SPLINE
5
374
100
AcDbEntity
8
0
100
AcDbSpline
70
0
71
2
72
6
73
3
74
0
42
0.000000001
43
0.0000000001
44
0.0000000001
40
0
40
0
40
0
40
1
40
1
40
1
10
3.4847770072519912
20
69.317319560796008
30
0
10
3.2094047404825821
20
69.317319560796008
30
0
10
3.0456701852381363
20
69.153587985783801
30
0
0
SPLINE
5
375
100
AcDbEntity
8
0
100
AcDbSpline
70
0
71
2
72
6
73
3
74
0
42
0.000000001
43
0.0000000001
44
0.0000000001
40
0
40
0
40
0
40
1
40
1
40
1
10
3.0456701852381363
20
69.153587985783801
30
0
10
2.8819353319704666
20
68.989851642400012
30
0
10
2.8819353319704666
20
68.718202281743274
30
0
0
SPLINE
5
376
100
AcDbEntity
8
0
100
AcDbSpline
70
0
71
2
72
6
73
3
74
0
42
0.000000001
43
0.0000000001
44
0.0000000001
40
0
40
0
40
0
40
1
40
1
40
1
10
2.8819353319704666
20
68.718202281743274
30
0
10
2.8819353319704666
20
68.45027225092052
30
0
10
3.0679974891245498
20
68.260486293584094
30
0
0
SPLINE
5
377
100
AcDbEntity
8
0
100
AcDbSpline
70
0
71
2
72
6
73
3
74
0
42
0.000000001
43
0.0000000001
44
0.0000000001
40
0
40
0
40
0
40
1
40
1
40
1
10
3.0679974891245498
20
68.260486293584094
30
0
10
3.2540599443018565
20
68.07070510461925
30
0
10
3.6112991906702647
20
68.029768634587512
30
0
0
LINE
5
378
100
AcDbEntity
8
0
100
AcDbLine
10
3.6112991906702647
20
68.029768634587512
30
0
11
3.4475646354258189
21
67.065966296941028
31
0
0
SPLINE
5
379
100
AcDbEntity
8
0
100
AcDbSpline
70
0
71
2
72
6
73
3
74
0
42
0.000000001
43
0.0000000001
44
0.0000000001
40
0
40
0
40
0
40
1
40
1
40
1
10
3.4475646354258189
20
67.065966296941028
30
0
10
2.9526389576494823
20
67.166440654546008
30
0
10
2.6567999459803233
20
67.369249034672961
30
0
0
SPLINE
5
380
100
AcDbEntity
8
0
100
AcDbSpline
70
0
71
2
72
6
73
3
74
0
42
0.000000001
43
0.0000000001
44
0.0000000001
40
0
40
0
40
0
40
1
40
1
40
1
10
2.6567999459803233
20
67.369249034672961
30
0
10
2.3609609343111644
20
67.572057414799914
30
0
10
2.1916438080370555
20
67.93487804010509
30
0
0
SPLINE
5
381
100
AcDbEntity
8
0
100
AcDbSpline
70
0
71
2
72
6
73
3
74
0
42
0.000000001
43
0.0000000001
44
0.0000000001
40
0
40
0
40
0
40
1
40
1
40
1
10
2.1916438080370555
20
67.93487804010509
30
0
10
2.0223272778093944
20
68.297698665410266
30
0
10
2.0223272778093944
20
68.747971225529895
30
0
0
SPLINE
5
382
100
AcDbEntity
8
0
100
AcDbSpline
70
0
71
2
72
6
73
3
74
0
42
0.000000001
43
0.0000000001
44
0.0000000001
40
0
40
0
40
0
40
1
40
1
40
1
10
2.0223272778093944
20
68.747971225529895
30
0
10
2.0223272778093948
20
69.518268276005969
30
0
10
2.5135318376124038
20
69.983422923833118
30
0
0
SPLINE
5
383
100
AcDbEntity
8
0
100
AcDbSpline
70
0
71
2
72
6
73
3
74
0
42
0.000000001
43
0.0000000001
44
0.0000000001
40
0
40
0
40
0
40
1
40
1
40
1
10
2.5135318376124038
20
69.983422923833118
30
0
10
2.9154265858233108
20
70.366714168339954
30
0
10
3.4215159155428543
20
70.366714168339954
30
0
0
SPLINE
5
384
100
AcDbEntity
8
0
100
AcDbSpline
70
0
71
2
72
6
73
3
74
0
42
0.000000001
43
0.0000000001
44
0.0000000001
40
0
40
0
40
0
40
1
40
1
40
1
10
3.4215159155428543
20
70.366714168339954
30
0
10
4.1397161222994461
20
70.366714168339954
30
0
10
4.5676592923700943
20
69.581530261784778
30
0
0
SPLINE
5
385
100
AcDbEntity
8
0
100
AcDbSpline
70
0
71
2
72
6
73
3
74
0
42
0.000000001
43
0.0000000001
44
0.0000000001
40
0
40
0
40
0
40
1
40
1
40
1
10
4.5676592923700943
20
69.581530261784778
30
0
10
4.6681327559054031
20
70.050404239445911
30
0
10
5.017929766327156
20
70.331361461430774
30
0
0
SPLINE
5
386
100
AcDbEntity
8
0
100
AcDbSpline
70
0
71
2
72
6
73
3
74
0
42
0.000000001
43
0.0000000001
44
0.0000000001
40
0
40
0
40
0
40
1
40
1
40
1
10
5.017929766327156
20
70.331361461430774
30
0
10
5.367726776748909
20
70.612313915044055
30
0
10
5.8626521565020218
20
70.612313915044055
30
0
0
SPLINE
5
387
100
AcDbEntity
8
0
100
AcDbSpline
70
0
71
2
72
6
73
3
74
0
42
0.000000001
43
0.0000000001
44
0.0000000001
40
0
40
0
40
0
40
1
40
1
40
1
10
5.8626521565020218
20
70.612313915044055
30
0
10
6.5808529593050613
20
70.612313915044055
30
0
10
7.086941692978157
20
70.087621379643664
30
0
0
SPLINE
5
388
100
AcDbEntity
8
0
100
AcDbSpline
70
0
71
2
72
6
73
3
74
0
42
0.000000001
43
0.0000000001
44
0.0000000001
40
0
40
0
40
0
40
1
40
1
40
1
10
7.086941692978157
20
70.087621379643664
30
0
10
7.5930310226977005
20
69.562924075871692
30
0
10
7.5930310226977005
20
68.781464267522082
30
0
0
SPLINE
5
389
100
AcDbEntity
8
0
100
AcDbSpline
70
0
71
2
72
6
73
3
74
0
42
0.000000001
43
0.0000000001
44
0.0000000001
40
0
40
0
40
0
40
1
40
1
40
1
10
7.5930310226977005
20
68.781464267522082
30
0
10
7.5930310226977005
20
68.040936160832629
30
0
10
7.1669484116137161
20
67.553451228886829
30
0
0
SPLINE
5
390
100
AcDbEntity
8
0
100
AcDbSpline
70
0
71
2
72
6
73
3
74
0
42
0.000000001
43
0.0000000001
44
0.0000000001
40
0
40
0
40
0
40
1
40
1
40
1
10
7.1669484116137161
20
67.553451228886829
30
0
10
6.7408663965761786
20
67.065966296941028
30
0
10
6.0524357296526556
20
66.9878222234547
30
0
0
LWPOLYLINE
5
391
100
AcDbEntity
8
0
100
AcDbPolyline
90
4
70
1
43
0.0
10
6.4543301798403396
20
71.490528751164661
10
7.5000000931322708
20
71.490528751164661
10
7.5000000931322708
20
72.536199260503039
10
6.4543301798403396
20
72.536199260503039
0
LINE
5
392
100
AcDbEntity
8
0
100
AcDbLine
10
7.5000000931322717
20
76.063935924321399
30
0
11
7.5000000931322717
21
75.01826541498302
31
0
0
LINE
5
393
100
AcDbEntity
8
0
100
AcDbLine
10
7.5000000931322717
20
75.01826541498302
30
0
11
3.5592020489275598
21
75.01826541498302
31
0
0
SPLINE
5
394
100
AcDbEntity
8
0
100
AcDbSpline
70
0
71
2
72
6
73
3
74
0
42
0.000000001
43
0.0000000001
44
0.0000000001
40
0
40
0
40
0
40
1
40
1
40
1
10
3.5592020489275598
20
75.01826541498302
30
0
10
4.0950612165033959
20
74.44519298151134
30
0
10
4.3518272973597192
20
73.667452502995715
30
0
0
LINE
5
395
100
AcDbEntity
8
0
100
AcDbLine
10
4.3518272973597192
20
73.667452502995715
30
0
11
3.4029097296297688
21
73.667452502995715
31
0
0
SPLINE
5
396
100
AcDbEntity
8
0
100
AcDbSpline
70
0
71
2
72
6
73
3
74
0
42
0.000000001
43
0.0000000001
44
0.0000000001
40
0
40
0
40
0
40
1
40
1
40
1
10
3.4029097296297688
20
73.667452502995715
30
0
10
3.2689450122416157
20
74.076788593083606
30
0
10
2.894959840923562
20
74.556830096989856
30
0
0
SPLINE
5
397
100
AcDbEntity
8
0
100
AcDbSpline
70
0
71
2
72
6
73
3
74
0
42
0.000000001
43
0.0000000001
44
0.0000000001
40
0
40
0
40
0
40
1
40
1
40
1
10
2.894959840923562
20
74.556830096989856
30
0
10
2.5209749676287316
20
75.036871600896106
30
0
10
2.0223278738558434
20
75.215490031987414
30
0
0
LINE
5
398
100
AcDbEntity
8
0
100
AcDbLine
10
2.0223278738558439
20
75.215490031987414
30
0
11
2.0223278738558439
21
76.063935924321399
31
0
0
LINE
5
399
100
AcDbEntity
8
0
100
AcDbLine
10
2.0223278738558439
20
76.063935924321399
30
0
11
7.5000000931322717
21
76.063935924321399
31
0
0
ENDSEC
0
SECTION
2
OBJECTS
0
DICTIONARY
5
C
100
AcDbDictionary
3
ACAD_GROUP
350
D
3
ACAD_MLINESTYLE
350
17
0
DICTIONARY
5
D
100
AcDbDictionary
0
DICTIONARY
5
1A
330
C
100
AcDbDictionary
0
DICTIONARY
5
17
100
AcDbDictionary
0
ENDSEC
0
EOF
